<svg width="50" height="50" viewBox="0 0 50 50" fill="none" xmlns="http://www.w3.org/2000/svg">
<path d="M16.7245 40.2211C16.7245 40.4397 16.5059 40.5958 16.1935 40.5958C15.8811 40.5958 15.6312 40.5958 15.6312 40.2211C15.6312 39.8464 15.8811 39.8464 16.1622 39.8464C16.4434 39.8464 16.7245 40.0025 16.7245 40.2211ZM13.6006 39.7527C13.6006 39.9713 13.6006 40.2211 14.038 40.2836C14.1498 40.3373 14.2784 40.3445 14.3956 40.3036C14.5127 40.2626 14.6088 40.1768 14.6627 40.065C14.6627 39.8464 14.6627 39.6278 14.2254 39.5341C13.788 39.4405 13.6631 39.5341 13.6006 39.7527ZM18.0366 39.5966C17.7554 39.5966 17.568 39.8464 17.5992 40.0962C17.6305 40.346 17.8804 40.4397 18.1928 40.3772C18.5052 40.3148 18.6614 40.0962 18.6301 39.8776C18.5989 39.659 18.349 39.5654 18.0366 39.5966ZM24.6905 0.0019631C21.396 -0.0290444 18.129 0.605594 15.0859 1.86778C12.0427 3.12997 9.28597 4.99371 6.98114 7.34712C4.67633 9.70054 2.87092 12.4952 1.67327 15.5632C0.475621 18.6313 -0.0896223 21.9095 0.0115304 25.2014C-0.0756896 30.5938 1.52423 35.8788 4.58777 40.3182C7.65131 44.7576 12.0255 48.1298 17.0994 49.9637C18.3802 50.1822 18.8487 49.3704 18.8487 48.7146C18.8487 48.0589 18.8487 44.5303 18.8487 42.4694C18.8487 42.4694 11.7887 44.0307 10.2892 39.3468C10.2892 39.3468 9.16464 36.2242 7.50895 35.5684C7.50895 35.5684 5.19725 33.9447 7.66515 33.9759C8.47343 34.0849 9.24492 34.3818 9.91766 34.8427C10.5904 35.3036 11.1456 35.916 11.5388 36.6301C11.8657 37.2706 12.32 37.8376 12.874 38.296C13.4279 38.7547 14.0697 39.0954 14.7601 39.2971C15.4504 39.4989 16.1748 39.5576 16.8886 39.4695C17.6025 39.3814 18.2908 39.1482 18.9112 38.7847C19.0296 37.481 19.5919 36.2576 20.5044 35.3186C14.8814 34.6629 9.19588 33.851 9.19588 23.8899C9.13615 22.7645 9.31702 21.6394 9.72638 20.5896C10.1358 19.5398 10.7643 18.589 11.5701 17.8008C10.8098 15.515 10.8985 13.032 11.82 10.8062C13.9442 10.1192 18.7862 13.5853 18.7862 13.5853C22.9229 12.4191 27.3017 12.4191 31.4381 13.5853C31.4381 13.5853 36.2802 10.1192 38.4045 10.8062C39.3461 13.0276 39.4348 15.518 38.6544 17.8008C39.4888 18.5781 40.1505 19.5216 40.5972 20.5705C41.0436 21.6194 41.2651 22.7501 41.2473 23.8899C41.2473 33.8822 35.3118 34.6629 29.6887 35.3186C30.2539 35.9522 30.684 36.6944 30.9527 37.4998C31.221 38.3051 31.3226 39.1566 31.2507 40.0025C31.2507 43.4999 31.2507 47.8091 31.2507 48.6522C31.2488 48.8629 31.2976 49.0712 31.3932 49.2592C31.4891 49.4472 31.6284 49.6096 31.8002 49.732C31.9717 49.8547 32.1707 49.934 32.3794 49.9633C32.5884 49.993 32.8014 49.9715 33.0001 49.9012C38.0649 48.0832 42.43 44.7208 45.4793 40.2889C48.5288 35.857 50.108 30.5791 49.9943 25.2014C50.0236 21.8761 49.3885 18.5784 48.1262 15.5016C46.8638 12.4249 44.9994 9.63106 42.6427 7.28398C40.286 4.9369 37.4839 3.08379 34.4012 1.83334C31.3185 0.582894 28.0171 -0.0397237 24.6905 0.0019631ZM9.82066 35.6309C9.82066 35.6309 9.82066 35.9744 9.82066 36.1617C9.85549 36.1967 9.89685 36.2245 9.94243 36.2432C9.98801 36.2623 10.0368 36.272 10.0862 36.272C10.1355 36.272 10.1844 36.2623 10.23 36.2432C10.2755 36.2245 10.3169 36.1967 10.3517 36.1617C10.3517 36.1617 10.3517 35.8182 10.3517 35.5997C10.3517 35.3811 9.94562 35.506 9.82066 35.6309ZM8.72729 34.7878C8.72729 34.7878 8.72729 35.1 8.94596 35.1937C8.9723 35.2265 9.00563 35.2527 9.04346 35.2708C9.08129 35.2886 9.12271 35.2983 9.16464 35.2983C9.20656 35.2983 9.24795 35.2886 9.28578 35.2708C9.32364 35.2527 9.35694 35.2265 9.38331 35.1937C9.38331 35.1937 9.38331 34.8815 9.16464 34.7878C8.94596 34.6941 8.78976 34.6941 8.72729 34.7878ZM11.8512 38.4725C11.8512 38.4725 11.8512 38.9096 11.8512 39.1282C11.8512 39.3468 12.3823 39.378 12.5072 39.1282C12.6322 38.8784 12.5072 38.691 12.5072 38.4725C12.5072 38.2539 12.1011 38.3163 11.9762 38.4725H11.8512ZM10.6954 36.9424C10.6954 36.9424 10.6954 37.3171 10.6954 37.5669C10.6954 37.8167 11.1327 37.9104 11.2889 37.8167C11.368 37.7258 11.4116 37.6094 11.4116 37.4888C11.4116 37.3683 11.368 37.2518 11.2889 37.161C11.1327 36.9111 10.8828 36.8175 10.6954 36.9424Z" fill="#F5F5F5"/>
</svg>
