<svg width="50" height="50" viewBox="0 0 50 50" fill="none" xmlns="http://www.w3.org/2000/svg">
<path d="M49.7686 21.1558L49.4817 20.0621H25.7592V29.9367H39.948C39.1563 32.95 37.3564 35.6158 34.8359 37.508C32.3157 39.4001 29.2206 40.4091 26.0461 40.3738C21.9036 40.3403 17.9235 38.791 14.8863 36.0302C13.3933 34.5881 12.2052 32.8713 11.3899 30.9785C10.5747 29.0858 10.1484 27.054 10.1355 24.9994C10.1836 20.873 11.8506 16.923 14.7907 13.9686C17.785 11.1886 21.762 9.65413 25.8867 9.68756C29.4193 9.71422 32.8204 11.0031 35.4522 13.3124L42.467 6.2502C37.8436 2.20774 31.8594 -0.0180504 25.6635 0.000448831C22.255 -0.0193941 18.8761 0.618893 15.7194 1.87891C12.5627 3.13889 9.69015 4.99591 7.2658 7.34391C2.65422 12.0383 0.0542459 18.2866 0.000838296 24.8028C-0.0525374 31.3191 2.44477 37.6073 6.97883 42.3737C9.49087 44.8264 12.4765 46.7642 15.7613 48.0732C19.0461 49.3825 22.564 50.0368 26.1099 49.9984C29.3252 50.0218 32.5121 49.4053 35.4774 48.186C38.4424 46.9666 41.124 45.1702 43.3597 42.9049C47.7468 38.1773 50.12 31.9826 49.9918 25.5931C50.0263 24.1107 49.9517 22.6279 49.7686 21.1558Z" fill="#F5F5F5"/>
</svg>
