<svg width="50" height="50" viewBox="0 0 50 50" fill="none" xmlns="http://www.w3.org/2000/svg">
<path d="M42.5266 7.25013C40.2342 4.94208 37.5056 3.11256 34.4997 1.8679C31.4934 0.623253 28.2695 -0.0116202 25.0156 0.000161007C20.6657 0.00441099 16.393 1.15078 12.6257 3.32446C8.85847 5.49814 5.72883 8.62285 3.55016 12.3856C1.37148 16.1484 0.220325 20.4173 0.211882 24.7645C0.203471 29.112 1.33812 33.3851 3.50219 37.1563L0 50L13.1332 46.5625C16.7597 48.5788 20.8346 49.6534 24.9844 49.6875C31.5813 49.6878 37.9112 47.0838 42.596 42.4425C47.2811 37.8016 49.9422 31.4988 50 24.9063C49.9781 21.6167 49.3064 18.3637 48.0241 15.3339C46.7417 12.3041 44.8734 9.557 42.5266 7.25013ZM25.0156 45.4063C21.3186 45.4088 17.6892 44.4157 14.5091 42.5313L13.7586 42.0625L5.97248 44.125L8.03627 36.5313L7.53596 35.7501C4.8757 31.4585 3.88286 26.3407 4.74553 21.3664C5.60819 16.3922 8.26645 11.9069 12.2167 8.76022C16.167 5.61355 21.1348 4.02408 26.1792 4.29293C31.2236 4.56174 35.9944 6.6702 39.5872 10.2189C43.5147 14.057 45.763 19.2923 45.8411 24.7813C45.7917 30.2685 43.5757 35.5141 39.6754 39.3769C35.7755 43.2394 30.5066 45.4066 25.0156 45.4063ZM36.3039 29.9688C35.6785 29.6563 32.6454 28.1563 32.0826 27.9688C31.5197 27.7813 31.0819 27.6563 30.6754 28.2813C30.0638 29.1191 29.4059 29.9223 28.7054 30.6876C28.3615 31.1251 27.9862 31.1563 27.3609 30.6876C23.7952 29.2795 20.8246 26.6857 18.9493 23.3439C18.2927 22.2501 19.5747 22.3126 20.763 19.9689C20.8508 19.7998 20.8965 19.6123 20.8965 19.422C20.8965 19.2317 20.8508 19.0442 20.763 18.8751C20.763 18.5626 19.3558 15.5001 18.8555 14.2814C18.3552 13.0626 17.8549 13.2501 17.4484 13.2189H16.2289C15.9129 13.2237 15.6016 13.2959 15.3158 13.4306C15.03 13.5654 14.7763 13.7595 14.5716 14.0001C13.87 14.6819 13.3227 15.5061 12.9667 16.4171C12.6107 17.3281 12.4543 18.3048 12.5078 19.2814C12.7039 21.6192 13.5848 23.8473 15.0407 25.6876C17.7054 29.6745 21.3574 32.9041 25.641 35.0626C27.8877 36.3732 30.4987 36.9213 33.0832 36.6251C33.9437 36.4544 34.7589 36.1047 35.4753 35.5985C36.192 35.0926 36.7939 34.4413 37.242 33.6876C37.6573 32.7676 37.788 31.7448 37.6173 30.7501C37.3358 30.4376 36.9293 30.2813 36.3039 29.9688Z" fill="#F5F5F5"/>
</svg>
