<svg width="70" height="70" viewBox="0 0 70 70" fill="none" xmlns="http://www.w3.org/2000/svg">
<g clip-path="url(#clip0_3_87)">
<path d="M35 70C54.33 70 70 54.33 70 35C70 15.67 54.33 0 35 0C15.67 0 0 15.67 0 35C0 54.33 15.67 70 35 70Z" fill="url(#paint0_radial_3_87)" fill-opacity="0.7"/>
<path d="M50.1104 42.1798C49.8216 42.1798 49.5674 42.4237 49.3028 42.9564C46.3157 49.0136 41.1563 53.2994 35.1859 53.2994C28.2824 53.2994 24.0073 47.0676 24.0073 38.4583C24.0073 23.875 32.1328 15.4432 39.2696 15.4432C42.6046 15.4432 44.6412 17.539 44.6412 20.8741C44.6412 24.8324 42.3924 26.9281 42.3924 28.3241C42.3924 28.9508 42.7822 29.3302 43.5551 29.3302C46.6605 29.3302 50.3053 25.7619 50.3053 20.7209C50.3053 15.8331 46.0512 12.2404 38.9145 12.2404C27.1197 12.2404 16.6373 23.1752 16.6373 38.3051C16.6373 50.0164 23.325 57.7555 33.6437 57.7555C44.5959 57.7555 50.9287 46.8587 50.9287 43.3219C50.9287 42.5386 50.5282 42.1798 50.1104 42.1798Z" fill="black" fill-opacity="0.7"/>
</g>
<defs>
<radialGradient id="paint0_radial_3_87" cx="0" cy="0" r="1" gradientUnits="userSpaceOnUse" gradientTransform="translate(28.6263 9.43158) rotate(66.5198) scale(55.1106 92.3226)">
<stop offset="0.79" stop-color="white"/>
</radialGradient>
<clipPath id="clip0_3_87">
<rect width="70" height="70" fill="white"/>
</clipPath>
</defs>
</svg>
