<svg width="70" height="70" viewBox="0 0 70 70" fill="none" xmlns="http://www.w3.org/2000/svg">
<path d="M9.75584 63.0026L4.13875 0H65.8612L60.2381 62.9926L34.9623 70L9.75584 63.0026Z" fill="#4EB4FF" fill-opacity="0.7"/>
<path d="M55.4241 58.9815L60.2295 5.15128H35V64.6439L55.4241 58.9815Z" fill="#4EB4FF" fill-opacity="0.7"/>
<path d="M17.016 28.5181L17.7085 36.2451H35V28.5181H17.016ZM16.3268 20.6055H35V12.8785H15.6244L16.3268 20.6055ZM35 48.586L34.9661 48.595L26.3605 46.2714L25.8105 40.1086H18.0536L19.1363 52.2412L34.9645 56.6353L35 56.6253V48.586Z" fill="#F5F5F5" fill-opacity="0.7"/>
<path d="M34.9733 28.5181V36.2451H44.4883L43.5914 46.2664L34.9733 48.5924V56.6315L50.8141 52.2412L50.9303 50.9356L52.746 30.593L52.9346 28.5181L54.3296 12.8785H34.9733V20.6055H45.8615L45.1582 28.5181H34.9733Z" fill="#F5F5F5" fill-opacity="0.7"/>
</svg>
