<svg width="158" height="74" viewBox="0 0 158 74" fill="none" xmlns="http://www.w3.org/2000/svg">
<path d="M25 37C25 33.9058 26.2116 30.9383 28.3683 28.7504C30.5249 26.5625 33.45 25.3333 36.5 25.3333C39.55 25.3333 42.4751 26.5625 44.6317 28.7504C46.7884 30.9383 48 33.9058 48 37C48 40.0942 46.7884 43.0616 44.6317 45.2496C42.4751 47.4375 39.55 48.6666 36.5 48.6666C33.45 48.6666 30.5249 47.4375 28.3683 45.2496C26.2116 43.0616 25 40.0942 25 37V37Z" stroke="#F5F5F5" stroke-opacity="0.7" stroke-width="3.5"/>
<path d="M2 60.3334C2 57.2392 3.2116 54.2717 5.36827 52.0838C7.52494 49.8959 10.45 48.6667 13.5 48.6667H25V60.3334C25 63.4275 23.7884 66.395 21.6317 68.5829C19.4751 70.7709 16.55 72 13.5 72C10.45 72 7.52494 70.7709 5.36827 68.5829C3.2116 66.395 2 63.4275 2 60.3334Z" stroke="#F5F5F5" stroke-opacity="0.7" stroke-width="3.5"/>
<path d="M25 2V25.3333H36.5C39.55 25.3333 42.4751 24.1042 44.6317 21.9162C46.7884 19.7283 48 16.7609 48 13.6667C48 10.5725 46.7884 7.60501 44.6317 5.41709C42.4751 3.22916 39.55 2 36.5 2L25 2Z" stroke="#F5F5F5" stroke-opacity="0.7" stroke-width="3.5"/>
<path d="M2 13.6667C2 16.7609 3.2116 19.7283 5.36827 21.9162C7.52494 24.1042 10.45 25.3333 13.5 25.3333H25V2H13.5C10.45 2 7.52494 3.22916 5.36827 5.41709C3.2116 7.60501 2 10.5725 2 13.6667Z" stroke="#F5F5F5" stroke-opacity="0.7" stroke-width="3.5"/>
<path d="M2 37C2 40.0942 3.2116 43.0616 5.36827 45.2496C7.52494 47.4375 10.45 48.6666 13.5 48.6666H25V25.3333H13.5C10.45 25.3333 7.52494 26.5625 5.36827 28.7504C3.2116 30.9383 2 33.9058 2 37Z" stroke="#F5F5F5" stroke-opacity="0.7" stroke-width="3.5"/>
<g clip-path="url(#clip0_2_74)">
<path d="M63.6767 19V46.1385L67.0603 46.1519V33.2288H75.1939V29.8096H67.0473V22.4058H77.6534V19H63.6767ZM83.7178 24.5192C84.3046 24.5192 84.8673 24.2781 85.2822 23.849C85.6971 23.4198 85.9302 22.8377 85.9302 22.2308C85.9302 21.6238 85.6971 21.0418 85.2822 20.6126C84.8673 20.1834 84.3046 19.9423 83.7178 19.9423C83.1311 19.9423 82.5684 20.1834 82.1535 20.6126C81.7386 21.0418 81.5055 21.6238 81.5055 22.2308C81.5055 22.8377 81.7386 23.4198 82.1535 23.849C82.5684 24.2781 83.1311 24.5192 83.7178 24.5192ZM82.013 27.925V46.1519H85.3966V27.925H82.013Z" fill="#F5F5F5" fill-opacity="0.7"/>
<path fill-rule="evenodd" clip-rule="evenodd" d="M97.9027 27.4C93.426 27.4 90.3027 31.3173 90.3027 35.975C90.3027 40.6327 93.426 44.55 97.9027 44.55C99.9589 44.55 101.651 43.7423 102.887 42.3962V44.8193C102.896 45.5433 102.765 46.2619 102.504 46.9335C102.242 47.6051 101.855 48.2165 101.363 48.7322C100.872 49.2479 100.287 49.6578 99.6415 49.9381C98.9961 50.2185 98.3034 50.3637 97.6034 50.3654C96.5233 50.3654 95.4562 49.9346 94.6103 49.3154L92.9185 52.3443C94.2267 53.219 95.7388 53.7122 97.2954 53.772C98.852 53.8318 100.395 53.4559 101.763 52.6839C103.13 51.912 104.27 50.7726 105.064 49.386C105.857 47.9994 106.274 46.4171 106.271 44.8058V27.9385H102.887V29.5673C101.651 28.2212 99.9589 27.4135 97.9027 27.4135V27.4ZM93.6733 35.975C93.6733 33.0808 95.8075 30.8058 98.2801 30.8058C100.753 30.8058 102.874 33.0943 102.874 35.975C102.874 38.8693 100.74 41.1308 98.2801 41.1308C95.8075 41.1308 93.6733 38.8693 93.6733 35.975Z" fill="#F5F5F5" fill-opacity="0.7"/>
<path d="M118.425 30.8057C117.458 30.8234 116.536 31.2344 115.859 31.9499C115.182 32.6653 114.804 33.6277 114.808 34.6288V46.1519H111.424V27.925H114.808V29.5942C115.314 28.9002 115.971 28.3397 116.727 27.9584C117.482 27.5771 118.314 27.3857 119.154 27.4C121.523 27.4 123.345 28.6115 124.386 30.4692C124.966 29.5379 125.761 28.7701 126.699 28.2345C127.637 27.6989 128.689 27.4122 129.76 27.4C133.599 27.4 136.007 30.6038 136.007 34.575V46.1519H132.649V34.6154C132.653 33.6142 132.275 32.6518 131.598 31.9364C130.921 31.221 129.999 30.81 129.032 30.7923C128.064 30.81 127.142 31.221 126.465 31.9364C125.788 32.6518 125.41 33.6142 125.414 34.6154V46.1384H122.03V34.6154C122.034 33.6165 121.658 32.6561 120.984 31.9411C120.31 31.226 119.391 30.8134 118.425 30.7923V30.8057Z" fill="#F5F5F5" fill-opacity="0.7"/>
<path fill-rule="evenodd" clip-rule="evenodd" d="M154.005 29.9981C153.236 29.1693 152.313 28.5115 151.29 28.0647C150.268 27.618 149.168 27.3918 148.058 27.4C143.034 27.4 139.469 31.7885 139.469 37.0385C139.469 42.2885 143.034 46.6769 148.058 46.6769C149.167 46.6827 150.267 46.4555 151.289 46.0089C152.311 45.5623 153.235 44.9057 154.005 44.0788V46.1519H157.375V27.925H153.992V29.9981H154.005ZM142.839 37.0385C142.839 33.5654 145.416 30.8058 148.422 30.8058C151.415 30.8058 154.005 33.5654 154.005 37.0385C154.005 40.5115 151.428 43.2577 148.422 43.2577C145.429 43.2577 142.839 40.5115 142.839 37.0385Z" fill="#F5F5F5" fill-opacity="0.7"/>
</g>
<defs>
<clipPath id="clip0_2_74">
<rect width="95" height="35" fill="white" transform="translate(63 19)"/>
</clipPath>
</defs>
</svg>
