<svg width="70" height="70" viewBox="0 0 70 70" fill="none" xmlns="http://www.w3.org/2000/svg">
<path d="M9.73793 62.8906L4.10156 0H66.1016L60.4652 62.8906L35.0328 70" fill="#4EB4FF" fill-opacity="0.7"/>
<path d="M35 64.5312L55.3711 58.9258L60.1562 5.05859H35" fill="#4EB4FF" fill-opacity="0.7"/>
<path d="M35 28.4375H24.7461L24.0625 20.5078H35V12.8516H34.8633H15.5859L15.7227 14.9023L17.6367 36.2305H35V28.4375ZM35 48.5352H34.8633L26.25 46.2109L25.7031 40.0586H21.6016H18.0469L19.0039 52.2266L34.8633 56.6016H35V48.5352Z" fill="#F5F5F5" fill-opacity="0.7"/>
<path d="M34.8633 28.4375V36.2305H44.4336L43.4766 46.2109L34.8633 48.5352V56.6016L50.7227 52.2266L50.8594 50.8594L52.6367 30.4883L52.9102 28.4375H50.7227H34.8633ZM34.8633 12.8516V17.6367V20.5078H53.5938L53.7305 18.8672L54.1406 14.9023L54.2773 12.8516H34.8633Z" fill="#F5F5F5" fill-opacity="0.7"/>
</svg>
