<svg width="70" height="70" viewBox="0 0 70 70" fill="none" xmlns="http://www.w3.org/2000/svg">
<g clip-path="url(#clip0_3_116)">
<path d="M70 0H0V70H70V0Z" fill="#FFD84E" fill-opacity="0.7"/>
<path d="M47.0222 54.6878C48.4322 56.99 50.2667 58.6822 53.5111 58.6822C56.2367 58.6822 57.9778 57.32 57.9778 55.4378C57.9778 53.1822 56.1889 52.3833 53.1889 51.0711L51.5445 50.3656C46.7978 48.3433 43.6445 45.81 43.6445 40.4545C43.6445 35.5211 47.4033 31.7656 53.2778 31.7656C57.46 31.7656 60.4667 33.2211 62.6333 37.0322L57.5111 40.3211C56.3833 38.2989 55.1667 37.5022 53.2778 37.5022C51.3511 37.5022 50.13 38.7245 50.13 40.3211C50.13 42.2945 51.3522 43.0933 54.1745 44.3156L55.8189 45.02C61.4078 47.4167 64.5633 49.86 64.5633 55.3533C64.5633 61.2756 59.9111 64.52 53.6633 64.52C47.5545 64.52 43.6078 61.6089 41.6767 57.7933L47.0222 54.6878ZM23.7856 55.2578C24.8189 57.0911 25.7589 58.6411 28.0189 58.6411C30.18 58.6411 31.5433 57.7956 31.5433 54.5078V32.1411H38.1211V54.5967C38.1211 61.4078 34.1278 64.5078 28.2989 64.5078C23.0322 64.5078 19.9822 61.7822 18.4311 58.4994L23.7856 55.2578Z" fill="black" fill-opacity="0.7"/>
</g>
<defs>
<clipPath id="clip0_3_116">
<rect width="70" height="70" fill="white"/>
</clipPath>
</defs>
</svg>
