<svg width="70" height="70" viewBox="0 0 70 70" fill="none" xmlns="http://www.w3.org/2000/svg">
<path d="M12.3958 0H57.6042C64.4583 0 70 5.68376 70 12.7137V57.2863C70 64.3162 64.4583 70 57.6042 70H12.3958C5.54167 70 0 64.3162 0 57.2863V12.7137C0 5.68376 5.54167 0 12.3958 0Z" fill="#F5F5F5" fill-opacity="0.7"/>
<path d="M15.75 49.0897V18.3077C15.75 18.0983 15.8375 17.9786 16.0417 17.9786C16.5375 17.9786 17.0042 17.9786 17.675 17.9487C18.375 17.9188 19.1042 17.9188 19.8917 17.8889C20.6792 17.859 21.525 17.859 22.4292 17.829C23.3333 17.7991 24.2083 17.7991 25.0833 17.7991C27.475 17.7991 29.4583 18.0983 31.0917 18.7265C32.55 19.235 33.8917 20.0726 35 21.1795C35.9333 22.1367 36.6625 23.3034 37.1292 24.5897C37.5667 25.8461 37.8 27.1325 37.8 28.4786C37.8 31.0513 37.2167 33.1752 36.05 34.8504C34.8833 36.5256 33.25 37.782 31.3542 38.5C29.3708 39.2479 27.1833 39.5171 24.7917 39.5171C24.0917 39.5171 23.625 39.5171 23.3333 39.4872C23.0417 39.4573 22.6333 39.4573 22.0792 39.4573V49.0598C22.1083 49.2692 21.9625 49.4487 21.7583 49.4786C21.7292 49.4786 21.7 49.4786 21.6417 49.4786H16.1C15.8667 49.4786 15.75 49.359 15.75 49.0897ZM22.1083 23.7521V33.8034C22.5167 33.8333 22.8958 33.8632 23.2458 33.8632H24.7917C25.9292 33.8632 27.0667 33.6838 28.1458 33.3248C29.0792 33.0555 29.8958 32.4872 30.5375 31.7393C31.15 30.9914 31.4417 29.9743 31.4417 28.6581C31.4708 27.7308 31.2375 26.8034 30.7708 25.9957C30.275 25.2179 29.575 24.6196 28.7292 24.2906C27.65 23.8419 26.4833 23.6624 25.2875 23.6923C24.5292 23.6923 23.8583 23.6923 23.3042 23.7222C22.7208 23.6923 22.3125 23.7222 22.1083 23.7521Z" fill="black" fill-opacity="0.7"/>
<path d="M56 31.9786C55.125 31.4999 54.1917 31.1709 53.2 30.9615C52.1208 30.7222 51.0417 30.5726 49.9333 30.5726C49.35 30.5427 48.7375 30.6324 48.1833 30.782C47.8042 30.8717 47.4833 31.0811 47.2792 31.3803C47.1333 31.6196 47.0458 31.9187 47.0458 32.188C47.0458 32.4572 47.1625 32.7264 47.3375 32.9658C47.6 33.2948 47.95 33.564 48.3292 33.7734C49 34.1324 49.7 34.4615 50.4 34.7606C51.975 35.2991 53.4917 36.047 54.8917 36.9444C55.8542 37.5726 56.6417 38.4102 57.1958 39.4273C57.6625 40.3846 57.8958 41.4316 57.8667 42.5085C57.8958 43.9145 57.4875 45.3205 56.7292 46.4871C55.9125 47.6837 54.775 48.6111 53.4625 49.1495C52.0333 49.7777 50.2833 50.1068 48.1833 50.1068C46.8417 50.1068 45.5292 49.9871 44.2167 49.7179C43.1958 49.5384 42.175 49.2093 41.2417 48.7606C41.0375 48.641 40.8917 48.4316 40.9208 48.1923V42.9871C40.9208 42.8974 40.95 42.7777 41.0375 42.7179C41.125 42.6581 41.2125 42.688 41.3 42.7478C42.4375 43.4358 43.6333 43.9145 44.9167 44.2136C46.025 44.5128 47.1917 44.6623 48.3583 44.6623C49.4667 44.6623 50.2542 44.5128 50.7792 44.2435C51.2458 44.0341 51.5667 43.5256 51.5667 42.9871C51.5667 42.5683 51.3333 42.1794 50.8667 41.7905C50.4 41.4017 49.4375 40.9529 48.0083 40.3846C46.5208 39.8461 45.15 39.1282 43.8667 38.2307C42.9625 37.5726 42.2042 36.7051 41.65 35.688C41.1833 34.7307 40.95 33.6837 40.9792 32.6367C40.9792 31.3504 41.3292 30.1239 41.9708 29.017C42.7 27.8205 43.7792 26.8632 45.0333 26.2649C46.4042 25.547 48.125 25.2179 50.1958 25.2179C51.3917 25.2179 52.6167 25.3076 53.8125 25.4871C54.6875 25.6068 55.5333 25.8461 56.3208 26.1752C56.4375 26.2051 56.5542 26.3247 56.6125 26.4444C56.6417 26.564 56.6708 26.6837 56.6708 26.8034V31.6794C56.6708 31.7991 56.6125 31.9187 56.525 31.9786C56.2625 32.0384 56.1167 32.0384 56 31.9786Z" fill="black" fill-opacity="0.7"/>
</svg>
