<svg width="85" height="70" viewBox="0 0 85 70" fill="none" xmlns="http://www.w3.org/2000/svg">
<path d="M85 35.008C85 29.8009 77.9484 24.8661 67.1372 21.8059C69.6321 11.6159 68.5232 3.50881 63.6374 0.913252C62.5112 0.304417 61.1945 0.0160217 59.7564 0.0160217V3.58892C60.5534 3.58892 61.1945 3.73312 61.7316 4.00549C64.0879 5.25521 65.1101 10.0137 64.3131 16.1341C64.1225 17.6402 63.8106 19.2264 63.4295 20.8446C60.0336 20.0755 56.3259 19.4827 52.4276 19.0982C50.0887 16.1341 47.6631 13.4424 45.2201 11.0872C50.8683 6.23255 56.17 3.5729 59.7738 3.5729V0C55.0092 0 48.7719 3.14031 42.4654 8.58778C36.1588 3.17235 29.9215 0.0640881 25.157 0.0640881V3.63699C28.7434 3.63699 34.0624 6.28061 39.7106 11.1032C37.285 13.4585 34.8594 16.1341 32.555 19.0982C28.6394 19.4827 24.9317 20.0755 21.5359 20.8606C21.1374 19.2584 20.8428 17.7043 20.6349 16.2142C19.8206 10.0938 20.8255 5.33532 23.1645 4.06958C23.6843 3.78119 24.36 3.65301 25.157 3.65301V0.0801099C23.7016 0.0801099 22.3848 0.368505 21.2413 0.97734C16.3728 3.5729 15.2813 11.664 17.7935 21.8219C7.01692 24.8981 0 29.8169 0 35.008C0 40.2151 7.05157 45.1499 17.8628 48.2101C15.3679 58.4001 16.4768 66.5072 21.3626 69.1028C22.4888 69.7116 23.8055 70 25.2609 70C30.0255 70 36.2627 66.8597 42.5693 61.4122C48.8759 66.8276 55.1131 69.9359 59.8777 69.9359C61.3331 69.9359 62.6498 69.6475 63.7933 69.0387C68.6618 66.4431 69.7534 58.352 67.2411 48.1941C77.9831 45.1339 85 40.1991 85 35.008ZM62.4419 24.3214C61.8009 26.3882 61.0039 28.5191 60.1029 30.65C59.3926 29.3683 58.6476 28.0865 57.8333 26.8048C57.0363 25.523 56.1873 24.2733 55.3384 23.0556C57.7986 23.3921 60.1722 23.8086 62.4419 24.3214ZM54.5067 41.3848C53.1553 43.5477 51.7693 45.5985 50.3312 47.5051C47.7497 47.7134 45.1335 47.8256 42.5 47.8256C39.8838 47.8256 37.2676 47.7134 34.7034 47.5212C33.2654 45.6146 31.862 43.5798 30.5106 41.4328C29.1938 39.3339 27.9984 37.203 26.9069 35.0561C27.981 32.9091 29.1938 30.7622 30.4933 28.6633C31.8447 26.5003 33.2307 24.4495 34.6688 22.5429C37.2503 22.3346 39.8665 22.2225 42.5 22.2225C45.1162 22.2225 47.7324 22.3346 50.2966 22.5269C51.7346 24.4335 53.138 26.4683 54.4894 28.6152C55.8062 30.7141 57.0016 32.845 58.0932 34.992C57.0016 37.1389 55.8062 39.2859 54.5067 41.3848ZM60.1029 39.3019C61.0385 41.4488 61.8355 43.5958 62.4939 45.6786C60.2242 46.1913 57.8333 46.6239 55.3557 46.9604C56.2047 45.7267 57.0536 44.461 57.8506 43.1632C58.6476 41.8814 59.3926 40.5837 60.1029 39.3019ZM42.5347 56.3973C40.9234 54.8592 39.3121 53.1449 37.7181 51.2703C39.2774 51.3344 40.8714 51.3825 42.4827 51.3825C44.1113 51.3825 45.7226 51.3504 47.2992 51.2703C45.7399 53.1449 44.1286 54.8592 42.5347 56.3973ZM29.6443 46.9604C27.1841 46.6239 24.8104 46.2074 22.5408 45.6947C23.1818 43.6278 23.9788 41.4969 24.8797 39.366C25.5901 40.6477 26.3351 41.9295 27.1494 43.2113C27.9637 44.493 28.7954 45.7427 29.6443 46.9604ZM42.448 13.6187C44.0593 15.1568 45.6706 16.8711 47.2646 18.7457C45.7053 18.6816 44.1113 18.6336 42.5 18.6336C40.8714 18.6336 39.2601 18.6656 37.6835 18.7457C39.2428 16.8711 40.8541 15.1568 42.448 13.6187ZM29.627 23.0556C28.778 24.2893 27.9291 25.555 27.1321 26.8528C26.3351 28.1346 25.5901 29.4163 24.8797 30.6981C23.9441 28.5512 23.1472 26.4042 22.4888 24.3214C24.7585 23.8247 27.1494 23.3921 29.627 23.0556ZM13.9472 43.1151C7.8139 40.6958 3.84631 37.5235 3.84631 35.008C3.84631 32.4926 7.8139 29.3042 13.9472 26.9009C15.4372 26.3081 17.0658 25.7794 18.7464 25.2827C19.734 28.423 21.0334 31.6915 22.6447 35.0401C21.0508 38.3726 19.7687 41.6251 18.7984 44.7494C17.0832 44.2527 15.4545 43.7079 13.9472 43.1151ZM23.2684 66.0105C20.9121 64.7608 19.8899 60.0023 20.6869 53.8819C20.8775 52.3758 21.1894 50.7896 21.5705 49.1714C24.9664 49.9405 28.6741 50.5333 32.5724 50.9178C34.9113 53.8819 37.3369 56.5736 39.7799 58.9288C34.1317 63.7835 28.83 66.4431 25.2263 66.4431C24.4466 66.4271 23.7882 66.2829 23.2684 66.0105ZM64.3651 53.8018C65.1794 59.9222 64.1745 64.6807 61.8355 65.9464C61.3157 66.2348 60.64 66.363 59.843 66.363C56.2566 66.363 50.9376 63.7194 45.2894 58.8968C47.715 56.5415 50.1406 53.8659 52.445 50.9018C56.3606 50.5173 60.0683 49.9245 63.4641 49.1394C63.8626 50.7576 64.1745 52.3117 64.3651 53.8018ZM71.0355 43.1151C69.5455 43.7079 67.9168 44.2367 66.2362 44.7333C65.2487 41.593 63.9492 38.3246 62.338 34.976C63.9319 31.6434 65.214 28.3909 66.1843 25.2666C67.8995 25.7633 69.5281 26.3081 71.0528 26.9009C77.1861 29.3202 81.1537 32.4926 81.1537 35.008C81.1364 37.5235 77.1688 40.7118 71.0355 43.1151Z" fill="#4EB4FF" fill-opacity="0.7"/>
<path d="M42.4827 42.3301C46.8556 42.3301 50.4005 39.0519 50.4005 35.008C50.4005 30.9642 46.8556 27.686 42.4827 27.686C38.1098 27.686 34.5648 30.9642 34.5648 35.008C34.5648 39.0519 38.1098 42.3301 42.4827 42.3301Z" fill="#4EB4FF" fill-opacity="0.7"/>
</svg>
