<svg width="70" height="70" viewBox="0 0 70 70" fill="none" xmlns="http://www.w3.org/2000/svg">
<path d="M4.97519 35C4.97519 46.8849 11.8821 57.1558 21.8976 62.023L7.57476 22.7803C5.90875 26.5145 4.97519 30.647 4.97519 35Z" fill="#F5F5F5" fill-opacity="0.7"/>
<path d="M55.271 33.4848C55.271 29.774 53.9381 27.2041 52.7948 25.2039C51.2728 22.7306 49.8462 20.6361 49.8462 18.1628C49.8462 15.4026 51.9395 12.8333 54.8882 12.8333C55.0213 12.8333 55.1476 12.8499 55.2773 12.8573C49.9353 7.96327 42.8182 4.97519 35.0011 4.97519C24.5114 4.97519 15.2826 10.3572 9.91381 18.509C10.6183 18.5301 11.2822 18.545 11.8461 18.545C14.9867 18.545 19.8482 18.1639 19.8482 18.1639C21.4668 18.0685 21.6576 20.4458 20.0407 20.6372C20.0407 20.6372 18.4141 20.8286 16.6041 20.9234L27.5384 53.4467L34.1093 33.7396L29.4312 20.9223C27.8143 20.8275 26.2826 20.6361 26.2826 20.6361C24.6645 20.5412 24.8542 18.0673 26.4723 18.1628C26.4723 18.1628 31.4309 18.5438 34.3812 18.5438C37.5213 18.5438 42.3834 18.1628 42.3834 18.1628C44.0031 18.0673 44.1934 20.4447 42.5759 20.6361C42.5759 20.6361 40.9459 20.8275 39.1393 20.9223L49.9901 53.1993L52.9851 43.1912C54.2831 39.0382 55.271 36.0553 55.271 33.4848Z" fill="#F5F5F5" fill-opacity="0.7"/>
<path d="M35.5279 37.6264L26.5191 63.8044C29.209 64.5951 32.0536 65.0276 35.0011 65.0276C38.4977 65.0276 41.8509 64.4232 44.9721 63.3256C44.8915 63.1971 44.8184 63.0605 44.7584 62.912L35.5279 37.6264Z" fill="#F5F5F5" fill-opacity="0.7"/>
<path d="M61.3477 20.5944C61.4768 21.5508 61.55 22.5775 61.55 23.6819C61.55 26.7288 60.9809 30.1539 59.2669 34.4367L50.0952 60.9541C59.0218 55.7486 65.026 46.0776 65.026 35.0006C65.0265 29.7803 63.693 24.8714 61.3477 20.5944Z" fill="#F5F5F5" fill-opacity="0.7"/>
<path d="M35.0011 0C15.702 0 0 15.7009 0 35C0 54.3014 15.702 70.0017 35.0011 70.0017C54.2997 70.0017 70.004 54.3014 70.004 35C70.0034 15.7009 54.2997 0 35.0011 0ZM35.0011 68.3974C16.587 68.3974 1.60488 53.4153 1.60488 35C1.60488 16.5859 16.5864 1.60488 35.0011 1.60488C53.4147 1.60488 68.3957 16.5859 68.3957 35C68.3957 53.4153 53.4147 68.3974 35.0011 68.3974Z" fill="#F5F5F5" fill-opacity="0.7"/>
</svg>
