<svg width="57" height="56" viewBox="0 0 57 56" fill="none" xmlns="http://www.w3.org/2000/svg">
<path d="M28.06 0H27.4799L28.06 0.42C30.593 2.16966 32.7509 4.4078 34.407 7.00298C36.0631 9.59817 37.184 12.4981 37.7039 15.5325C38.2237 18.5668 38.1321 21.6745 37.4343 24.6729C36.7365 27.6714 35.4466 30.5002 33.6405 32.9933C31.8343 35.4863 29.5482 37.5934 26.9164 39.1907C24.2847 40.7881 21.3603 41.8435 18.315 42.295C15.2697 42.7465 12.1649 42.585 9.18289 41.8199C6.20088 41.0549 3.40178 39.7018 0.949951 37.84C2.95283 43.1757 6.53627 47.7732 11.2215 51.0182C15.9068 54.2632 21.4707 56.0012 27.17 56H28.06C35.486 56 42.6079 53.05 47.8589 47.799C53.11 42.548 56.06 35.4261 56.06 28C56.06 20.5739 53.11 13.452 47.8589 8.20101C42.6079 2.94999 35.486 0 28.06 0Z" fill="#4EB4FF"/>
<path d="M16.45 25.5401L15.45 25.3501C15.2311 25.3109 15.0253 25.2183 14.8509 25.0805C14.6764 24.9427 14.5387 24.7639 14.45 24.5601L14.0599 23.6601C13.959 23.429 13.7953 23.2308 13.5875 23.088C13.3797 22.9452 13.1361 22.8634 12.8842 22.852C12.6323 22.8405 12.3822 22.8999 12.1623 23.0232C11.9424 23.1466 11.7615 23.3291 11.6399 23.5501L11.1599 24.4101C11.054 24.6016 10.903 24.7645 10.7201 24.8847C10.5372 25.0049 10.3278 25.0788 10.1099 25.1001L9.10995 25.2001C8.85789 25.2231 8.61737 25.3165 8.41585 25.4696C8.21433 25.6228 8.05993 25.8295 7.97025 26.0662C7.88058 26.3029 7.85926 26.56 7.90871 26.8083C7.95817 27.0565 8.07641 27.2858 8.24995 27.4701L8.91995 28.1901C9.06875 28.35 9.17651 28.5437 9.23399 28.7544C9.29147 28.9652 9.29695 29.1867 9.24995 29.4001L9.03995 30.4001C8.98142 30.6534 8.99731 30.9183 9.08572 31.1629C9.17413 31.4074 9.33129 31.6213 9.53831 31.7786C9.74533 31.936 9.99339 32.0302 10.2527 32.05C10.512 32.0698 10.7715 32.0142 10.9999 31.8901L11.8899 31.4701C12.089 31.3767 12.3078 31.3334 12.5274 31.3439C12.747 31.3543 12.9607 31.4182 13.1499 31.5301L13.9999 32.0001C14.2167 32.1212 14.4626 32.1802 14.7106 32.1706C14.9587 32.161 15.1993 32.0832 15.406 31.9457C15.6127 31.8082 15.7775 31.6164 15.8823 31.3914C15.9871 31.1663 16.0278 30.9167 15.9999 30.6701L15.8799 29.6701C15.8519 29.4524 15.8773 29.2312 15.9539 29.0256C16.0306 28.82 16.1562 28.6362 16.3199 28.4901L17.0599 27.8401C17.2384 27.6734 17.3682 27.4614 17.4357 27.2268C17.5032 26.9921 17.5058 26.7435 17.4432 26.5075C17.3806 26.2715 17.2552 26.0569 17.0803 25.8865C16.9054 25.7162 16.6875 25.5964 16.45 25.5401Z" fill="#FEDB41"/>
<path d="M8.90996 15.7599L8.78996 14.7599C8.76188 14.5423 8.78727 14.3211 8.86394 14.1155C8.94061 13.9099 9.06624 13.7261 9.22996 13.5799L9.99996 12.9999C10.1898 12.833 10.3289 12.616 10.4015 12.3739C10.4741 12.1317 10.4772 11.874 10.4105 11.6301C10.3438 11.3863 10.21 11.166 10.0242 10.9945C9.83852 10.823 9.60835 10.7071 9.35996 10.6599L8.35996 10.4699C8.14112 10.4308 7.93533 10.3382 7.76088 10.2004C7.58643 10.0625 7.44871 9.88378 7.35996 9.67994L6.96996 8.77994C6.86901 8.54888 6.70535 8.35071 6.49755 8.20789C6.28974 8.06507 6.04609 7.9833 5.7942 7.97185C5.5423 7.9604 5.29224 8.01973 5.07233 8.14311C4.85242 8.26649 4.67147 8.44899 4.54996 8.66994L4.06996 9.52994C3.95736 9.71663 3.80121 9.87328 3.61487 9.98647C3.42853 10.0997 3.21755 10.1661 2.99996 10.1799L1.99996 10.2799C1.7479 10.303 1.50739 10.3964 1.30587 10.5495C1.10435 10.7027 0.94994 10.9094 0.860268 11.1461C0.770596 11.3828 0.749271 11.6399 0.798726 11.8881C0.848182 12.1364 0.966426 12.3657 1.13996 12.5499L1.80996 13.2699C1.95876 13.4299 2.06653 13.6235 2.12401 13.8343C2.18149 14.045 2.18696 14.2666 2.13996 14.4799L1.92996 15.4799C1.86545 15.7341 1.87635 16.0015 1.96133 16.2496C2.04631 16.4977 2.2017 16.7156 2.40851 16.8768C2.61532 17.038 2.86461 17.1355 3.12592 17.1574C3.38722 17.1793 3.64924 17.1245 3.87996 16.9999L4.76996 16.5799C4.96191 16.4856 5.17353 16.4382 5.38737 16.4417C5.60122 16.4452 5.81119 16.4994 5.99996 16.5999L6.84996 17.0999C7.06852 17.2391 7.32251 17.3124 7.58161 17.3112C7.84071 17.3099 8.09397 17.2341 8.31117 17.0928C8.52836 16.9516 8.70031 16.7508 8.80649 16.5144C8.91267 16.2781 8.94859 16.0161 8.90996 15.7599Z" fill="#FEDB41"/>
<path d="M26.3199 13.2901L25.3199 13.1001C25.1011 13.0609 24.8953 12.9683 24.7209 12.8305C24.5464 12.6927 24.4087 12.5139 24.3199 12.3101L23.9299 11.4101C23.829 11.179 23.6653 10.9808 23.4575 10.838C23.2497 10.6952 23.0061 10.6134 22.7542 10.602C22.5023 10.5905 22.2522 10.6499 22.0323 10.7732C21.8124 10.8966 21.6314 11.0791 21.5099 11.3001L21.0299 12.1601C20.924 12.3516 20.773 12.5145 20.5901 12.6347C20.4072 12.7549 20.1978 12.8288 19.9799 12.8501L18.9799 12.9501C18.7279 12.9731 18.4874 13.0665 18.2858 13.2196C18.0843 13.3728 17.9299 13.5795 17.8402 13.8162C17.7506 14.0529 17.7293 14.31 17.7787 14.5583C17.8282 14.8065 17.9464 15.0358 18.1199 15.2201L18.7899 15.9401C18.9387 16.1 19.0465 16.2937 19.104 16.5044C19.1615 16.7152 19.1669 16.9367 19.1199 17.1501L18.9099 18.1501C18.8542 18.3966 18.8688 18.6537 18.952 18.8924C19.0352 19.131 19.1837 19.3414 19.3806 19.4998C19.5776 19.6582 19.815 19.7581 20.0659 19.7882C20.3168 19.8183 20.5711 19.7774 20.7999 19.6701L21.6899 19.2501C21.889 19.1567 22.1078 19.1134 22.3274 19.1239C22.547 19.1343 22.7607 19.1982 22.9499 19.3101L23.7999 19.8101C24.0167 19.9312 24.2626 19.9902 24.5106 19.9806C24.7587 19.971 24.9993 19.8932 25.206 19.7557C25.4127 19.6182 25.5775 19.4264 25.6823 19.2014C25.7871 18.9763 25.8278 18.7267 25.7999 18.4801L25.6799 17.4801C25.6519 17.2624 25.6772 17.0412 25.7539 16.8356C25.8306 16.63 25.9562 16.4462 26.1199 16.3001L26.8599 15.6501C27.0552 15.491 27.2021 15.2805 27.284 15.0423C27.3659 14.8041 27.3795 14.5478 27.3233 14.3023C27.2672 14.0567 27.1434 13.8318 26.9661 13.653C26.7888 13.4741 26.565 13.3484 26.3199 13.2901Z" fill="#FEDB41"/>
<g opacity="0.15">
<path d="M55.1701 28C55.1737 20.7256 52.3462 13.7353 47.2862 8.50915C42.2261 3.28298 35.3308 0.231221 28.0601 0V0.39C31.0433 2.52835 33.474 5.34682 35.1509 8.61186C36.8277 11.8769 37.7024 15.4945 37.7024 19.165C37.7024 22.8355 36.8277 26.4531 35.1509 29.7181C33.474 32.9832 31.0433 35.8016 28.0601 37.94V56C35.3308 55.7688 42.2261 52.717 47.2862 47.4909C52.3462 42.2647 55.1737 35.2744 55.1701 28Z" fill="black"/>
</g>
</svg>
