<svg width="90" height="100" viewBox="0 0 90 100" fill="none" xmlns="http://www.w3.org/2000/svg">
<path d="M44.9893 15.1184C28.1775 15.1184 14.5408 29.2542 14.5408 46.7062C14.5408 58.2962 20.5573 68.4346 29.5336 73.9281V83.9549C29.5336 84.1001 29.5336 84.2341 29.5444 84.3792C29.5552 84.7365 29.5767 85.0938 29.609 85.4511C30.3408 93.5798 36.9924 100 45.0108 100C49.2622 100 53.1261 98.1912 55.9352 95.2881C58.4107 92.72 60.0574 89.281 60.4126 85.4735C60.4449 85.1162 60.4664 84.7589 60.4772 84.4016C60.4772 84.2564 60.4879 84.1001 60.4879 83.9549V73.9058L60.5525 73.8723C69.475 68.3676 75.4592 58.2627 75.4592 46.7062C75.4377 29.2542 61.8118 15.1184 44.9893 15.1184ZM55.7307 83.9549C55.7307 84.6026 55.6769 85.239 55.5693 85.8531C55.4509 86.5789 55.2571 87.2823 54.9988 87.9634C54.4607 89.3815 53.6427 90.699 52.5664 91.8156C50.5322 93.9259 47.8414 95.0871 44.9893 95.0871C42.1371 95.0871 39.4463 93.9259 37.4121 91.8156C36.3358 90.699 35.5071 89.3815 34.9689 87.9523C34.7106 87.2712 34.5276 86.5677 34.4093 85.8419C34.3016 85.2278 34.2586 84.5914 34.2586 83.9549V82.9724H55.7199V83.9549H55.7307ZM55.7307 81.1858H34.2693V75.8598H55.7307V81.1858ZM63.1679 65.565C62.3284 66.436 61.4566 67.2287 60.531 67.9545C59.0565 69.1157 57.4743 70.1095 55.7953 70.9134L55.7307 70.9469V70.9581H34.2693C32.6118 70.1653 31.0512 69.2051 29.5982 68.0773C28.6188 67.3181 27.6932 66.4806 26.8106 65.565C24.4427 63.1086 22.5915 60.2613 21.2999 57.0903C19.9546 53.8076 19.2765 50.3127 19.2765 46.7062C19.2765 43.0996 19.9546 39.6159 21.2999 36.3221C22.5915 33.151 24.4535 30.2926 26.8106 27.8361C29.1784 25.3797 31.923 23.4592 34.9905 22.1193C38.1548 20.7348 41.5236 20.0313 45 20.0313C48.4765 20.0313 51.8453 20.7348 55.0096 22.1193C58.0663 23.4592 60.8216 25.3909 63.1894 27.8361C65.5573 30.2926 67.4085 33.1398 68.7001 36.3221C70.0347 39.6048 70.7235 43.0996 70.7235 46.7062C70.7235 50.3127 70.0455 53.7964 68.7001 57.0903C67.387 60.2613 65.5358 63.1086 63.1679 65.565Z" fill="#4EB4FF"/>
<path d="M44.9892 41.101C40.7163 41.101 37.2399 44.7075 37.2399 49.1403C37.2399 53.3051 40.3181 56.7441 44.2358 57.1461V70.958H45.7427V57.1461C49.6604 56.7553 52.7386 53.3162 52.7386 49.1403C52.7386 44.7075 49.2621 41.101 44.9892 41.101ZM44.9892 55.393C41.6635 55.393 38.962 52.5905 38.962 49.1403C38.962 45.6901 41.6635 42.8875 44.9892 42.8875C48.315 42.8875 51.0165 45.6901 51.0165 49.1403C51.0165 52.5905 48.315 55.393 44.9892 55.393Z" fill="#FFD84E"/>
<path d="M40.7594 4.39929C40.7594 5.56605 41.2062 6.68503 42.0014 7.51005C42.7967 8.33508 43.8753 8.79857 45 8.79857C46.1247 8.79857 47.2033 8.33508 47.9986 7.51005C48.7938 6.68503 49.2406 5.56605 49.2406 4.39929C49.2406 3.23252 48.7938 2.11355 47.9986 1.28852C47.2033 0.463495 46.1247 0 45 0C43.8753 0 42.7967 0.463495 42.0014 1.28852C41.2062 2.11355 40.7594 3.23252 40.7594 4.39929Z" fill="#FFD84E"/>
<path d="M11.9362 16.7821C11.9362 17.3598 12.0458 17.9319 12.259 18.4656C12.4721 18.9994 12.7844 19.4844 13.1782 19.8929C13.572 20.3014 14.0395 20.6254 14.554 20.8465C15.0685 21.0676 15.6199 21.1814 16.1768 21.1814C16.7337 21.1814 17.2851 21.0676 17.7996 20.8465C18.3141 20.6254 18.7816 20.3014 19.1753 19.8929C19.5691 19.4844 19.8815 18.9994 20.0946 18.4656C20.3077 17.9319 20.4174 17.3598 20.4174 16.7821C20.4174 15.6153 19.9706 14.4964 19.1753 13.6713C18.3801 12.8463 17.3014 12.3828 16.1768 12.3828C15.0521 12.3828 13.9735 12.8463 13.1782 13.6713C12.3829 14.4964 11.9362 15.6153 11.9362 16.7821Z" fill="#FFD84E"/>
<path d="M0 46.6726C-1.17355e-08 47.2503 0.109687 47.8224 0.322797 48.3561C0.535908 48.8899 0.848269 49.3749 1.24205 49.7834C1.63582 50.1919 2.10331 50.5159 2.6178 50.737C3.1323 50.9581 3.68373 51.0719 4.24061 51.0719C4.7975 51.0719 5.34893 50.9581 5.86342 50.737C6.37792 50.5159 6.8454 50.1919 7.23918 49.7834C7.63295 49.3749 7.94532 48.8899 8.15843 48.3561C8.37154 47.8224 8.48122 47.2503 8.48122 46.6726C8.48122 45.5058 8.03445 44.3869 7.23918 43.5618C6.44391 42.7368 5.36529 42.2733 4.24061 42.2733C3.11593 42.2733 2.03732 42.7368 1.24205 43.5618C0.446778 44.3869 0 45.5058 0 46.6726Z" fill="#FFD84E"/>
<path d="M81.5188 46.6726C81.5188 47.2503 81.6285 47.8224 81.8416 48.3561C82.0547 48.8899 82.367 49.3749 82.7608 49.7834C83.1546 50.1919 83.6221 50.5159 84.1366 50.737C84.6511 50.9581 85.2025 51.0719 85.7594 51.0719C86.3163 51.0719 86.8677 50.9581 87.3822 50.737C87.8967 50.5159 88.3642 50.1919 88.7579 49.7834C89.1517 49.3749 89.4641 48.8899 89.6772 48.3561C89.8903 47.8224 90 47.2503 90 46.6726C90 46.0949 89.8903 45.5228 89.6772 44.9891C89.4641 44.4553 89.1517 43.9703 88.7579 43.5618C88.3642 43.1533 87.8967 42.8293 87.3822 42.6082C86.8677 42.3871 86.3163 42.2733 85.7594 42.2733C85.2025 42.2733 84.6511 42.3871 84.1366 42.6082C83.6221 42.8293 83.1546 43.1533 82.7608 43.5618C82.367 43.9703 82.0547 44.4553 81.8416 44.9891C81.6285 45.5228 81.5188 46.0949 81.5188 46.6726Z" fill="#FFD84E"/>
<path d="M69.5826 16.7821C69.5826 17.9489 70.0294 19.0678 70.8247 19.8929C71.62 20.7179 72.6986 21.1814 73.8233 21.1814C74.9479 21.1814 76.0266 20.7179 76.8218 19.8929C77.6171 19.0678 78.0639 17.9489 78.0639 16.7821C78.0639 15.6153 77.6171 14.4964 76.8218 13.6713C76.0266 12.8463 74.9479 12.3828 73.8233 12.3828C72.6986 12.3828 71.62 12.8463 70.8247 13.6713C70.0294 14.4964 69.5826 15.6153 69.5826 16.7821Z" fill="#FFD84E"/>
</svg>
