<svg width="130" height="100" viewBox="0 0 130 100" fill="none" xmlns="http://www.w3.org/2000/svg">
<path d="M0 0V100H130V0H0ZM123.618 93.7677H6.3825V92.1246L34.4655 64.7026L51.6983 81.5297L53.3374 83.1303L54.9766 81.5297L101.83 35.779L123.618 57.0538V93.7677ZM123.618 53.8385L101.83 32.5637L53.3374 79.9292L34.4655 61.4873L6.3825 88.9094V6.23229H123.618V53.8385Z" fill="#4EB4FF"/>
<path d="M35.2198 40.779C28.8953 40.779 23.7458 35.7507 23.7458 29.5751C23.7458 23.3994 28.8953 18.3711 35.2198 18.3711C41.5443 18.3711 46.6938 23.3994 46.6938 29.5751C46.6938 35.7507 41.5443 40.779 35.2198 40.779ZM35.2198 20.6374C30.1718 20.6374 26.0667 24.6459 26.0667 29.5751C26.0667 34.5042 30.1718 38.5127 35.2198 38.5127C40.2678 38.5127 44.3729 34.5042 44.3729 29.5751C44.3729 24.6459 40.2678 20.6374 35.2198 20.6374Z" fill="#FFD84E"/>
<path d="M33.7112 13.2153C33.7112 13.5909 33.864 13.9512 34.1361 14.2168C34.4081 14.4825 34.7771 14.6317 35.1618 14.6317C35.5465 14.6317 35.9155 14.4825 36.1875 14.2168C36.4595 13.9512 36.6124 13.5909 36.6124 13.2153C36.6124 12.8396 36.4595 12.4793 36.1875 12.2137C35.9155 11.9481 35.5465 11.7988 35.1618 11.7988C34.7771 11.7988 34.4081 11.9481 34.1361 12.2137C33.864 12.4793 33.7112 12.8396 33.7112 13.2153Z" fill="#FFD84E"/>
<path d="M25.3414 15.4249C25.3414 15.8005 25.4943 16.1608 25.7663 16.4264C26.0383 16.6921 26.4073 16.8413 26.792 16.8413C27.1767 16.8413 27.5457 16.6921 27.8177 16.4264C28.0897 16.1608 28.2426 15.8005 28.2426 15.4249C28.2426 15.0492 28.0897 14.6889 27.8177 14.4233C27.5457 14.1577 27.1767 14.0084 26.792 14.0084C26.4073 14.0084 26.0383 14.1577 25.7663 14.4233C25.4943 14.6889 25.3414 15.0492 25.3414 15.4249Z" fill="#FFD84E"/>
<path d="M19.2201 21.4449C19.2201 21.8205 19.3729 22.1808 19.6449 22.4464C19.917 22.7121 20.2859 22.8613 20.6706 22.8613C21.0553 22.8613 21.4243 22.7121 21.6963 22.4464C21.9684 22.1808 22.1212 21.8205 22.1212 21.4449C22.1212 21.0692 21.9684 20.7089 21.6963 20.4433C21.4243 20.1777 21.0553 20.0284 20.6706 20.0284C20.2859 20.0284 19.917 20.1777 19.6449 20.4433C19.3729 20.7089 19.2201 21.0692 19.2201 21.4449Z" fill="#FFD84E"/>
<path d="M17.0007 29.6318C17.0007 30.0074 17.1535 30.3677 17.4255 30.6333C17.6976 30.899 18.0665 31.0482 18.4513 31.0482C18.836 31.0482 19.2049 30.899 19.477 30.6333C19.749 30.3677 19.9018 30.0074 19.9018 29.6318C19.9018 29.2561 19.749 28.8958 19.477 28.6302C19.2049 28.3646 18.836 28.2153 18.4513 28.2153C18.0665 28.2153 17.6976 28.3646 17.4255 28.6302C17.1535 28.8958 17.0007 29.2561 17.0007 29.6318Z" fill="#FFD84E"/>
<path d="M19.2781 37.8045C19.2781 38.1802 19.4309 38.5404 19.7029 38.8061C19.975 39.0717 20.3439 39.2209 20.7286 39.2209C21.1134 39.2209 21.4823 39.0717 21.7544 38.8061C22.0264 38.5404 22.1792 38.1802 22.1792 37.8045C22.1792 37.4288 22.0264 37.0686 21.7544 36.8029C21.4823 36.5373 21.1134 36.3881 20.7286 36.3881C20.3439 36.3881 19.975 36.5373 19.7029 36.8029C19.4309 37.0686 19.2781 37.4288 19.2781 37.8045Z" fill="#FFD84E"/>
<path d="M25.4285 43.7677C25.4285 44.1434 25.5813 44.5037 25.8533 44.7693C26.1254 45.035 26.4943 45.1842 26.879 45.1842C27.2638 45.1842 27.6327 45.035 27.9047 44.7693C28.1768 44.5037 28.3296 44.1434 28.3296 43.7677C28.3296 43.3921 28.1768 43.0318 27.9047 42.7662C27.6327 42.5005 27.2638 42.3513 26.879 42.3513C26.4943 42.3513 26.1254 42.5005 25.8533 42.7662C25.5813 43.0318 25.4285 43.3921 25.4285 43.7677Z" fill="#FFD84E"/>
<path d="M33.8128 45.9349C33.8128 46.3105 33.9656 46.6708 34.2376 46.9364C34.5097 47.2021 34.8786 47.3513 35.2633 47.3513C35.6481 47.3513 36.017 47.2021 36.2891 46.9364C36.5611 46.6708 36.7139 46.3105 36.7139 45.9349C36.7139 45.5592 36.5611 45.1989 36.2891 44.9333C36.017 44.6677 35.6481 44.5184 35.2633 44.5184C34.8786 44.5184 34.5097 44.6677 34.2376 44.9333C33.9656 45.1989 33.8128 45.5592 33.8128 45.9349Z" fill="#FFD84E"/>
<path d="M42.1971 43.7253C42.1971 44.1009 42.3499 44.4612 42.6219 44.7268C42.894 44.9925 43.2629 45.1417 43.6477 45.1417C44.0324 45.1417 44.4013 44.9925 44.6734 44.7268C44.9454 44.4612 45.0982 44.1009 45.0982 43.7253C45.0982 43.3496 44.9454 42.9893 44.6734 42.7237C44.4013 42.4581 44.0324 42.3088 43.6477 42.3088C43.2629 42.3088 42.894 42.4581 42.6219 42.7237C42.3499 42.9893 42.1971 43.3496 42.1971 43.7253Z" fill="#FFD84E"/>
<path d="M48.304 37.7054C48.304 38.081 48.4568 38.4413 48.7288 38.7069C49.0009 38.9726 49.3698 39.1218 49.7545 39.1218C50.1392 39.1218 50.5082 38.9726 50.7802 38.7069C51.0523 38.4413 51.2051 38.081 51.2051 37.7054C51.2051 37.3297 51.0523 36.9694 50.7802 36.7038C50.5082 36.4382 50.1392 36.2889 49.7545 36.2889C49.3698 36.2889 49.0009 36.4382 48.7288 36.7038C48.4568 36.9694 48.304 37.3297 48.304 37.7054Z" fill="#FFD84E"/>
<path d="M50.5233 29.5184C50.5233 29.894 50.6762 30.2543 50.9482 30.5199C51.2202 30.7856 51.5892 30.9348 51.9739 30.9348C52.3586 30.9348 52.7276 30.7856 52.9996 30.5199C53.2717 30.2543 53.4245 29.894 53.4245 29.5184C53.4245 29.1427 53.2717 28.7824 52.9996 28.5168C52.7276 28.2512 52.3586 28.1019 51.9739 28.1019C51.5892 28.1019 51.2202 28.2512 50.9482 28.5168C50.6762 28.7824 50.5233 29.1427 50.5233 29.5184Z" fill="#FFD84E"/>
<path d="M48.2459 21.3456C48.2459 21.7213 48.3987 22.0816 48.6708 22.3472C48.9428 22.6128 49.3118 22.7621 49.6965 22.7621C50.0812 22.7621 50.4502 22.6128 50.7222 22.3472C50.9942 22.0816 51.147 21.7213 51.147 21.3456C51.147 20.97 50.9942 20.6097 50.7222 20.3441C50.4502 20.0784 50.0812 19.9292 49.6965 19.9292C49.3118 19.9292 48.9428 20.0784 48.6708 20.3441C48.3987 20.6097 48.2459 20.97 48.2459 21.3456Z" fill="#FFD84E"/>
<path d="M42.0955 15.3825C42.0955 15.7582 42.2483 16.1184 42.5204 16.3841C42.7924 16.6497 43.1614 16.7989 43.5461 16.7989C43.9308 16.7989 44.2998 16.6497 44.5718 16.3841C44.8438 16.1184 44.9967 15.7582 44.9967 15.3825C44.9967 15.0068 44.8438 14.6466 44.5718 14.3809C44.2998 14.1153 43.9308 13.9661 43.5461 13.9661C43.1614 13.9661 42.7924 14.1153 42.5204 14.3809C42.2483 14.6466 42.0955 15.0068 42.0955 15.3825Z" fill="#FFD84E"/>
</svg>
