<svg width="100" height="100" viewBox="0 0 100 100" fill="none" xmlns="http://www.w3.org/2000/svg">
<path d="M87.0647 16.4509C86.6629 16.0045 86.25 15.5692 85.8371 15.1451C79.8326 8.96205 72.2321 4.33036 63.7165 1.89732C62.0313 1.41741 60.3125 1.02679 58.5603 0.725446C55.7701 0.245536 52.9129 0 50 0C35.9375 0 23.2254 5.80357 14.1406 15.1562C13.7277 15.5804 13.3147 16.0156 12.9129 16.4621C4.88839 25.3237 0 37.0982 0 50C0 62.9018 4.88839 74.654 12.9018 83.5268C13.3036 83.9732 13.7054 84.4085 14.1295 84.8326C20.1451 91.0268 27.7567 95.6696 36.2946 98.1027C37.9799 98.5826 39.6987 98.9732 41.4509 99.2746C44.2299 99.7545 47.0871 100 50 100C52.9129 100 55.7701 99.7545 58.5603 99.2746C60.3125 98.9732 62.0313 98.5826 63.7165 98.1027C72.2545 95.6808 79.8549 91.0379 85.8705 84.8438C86.2835 84.4085 86.6964 83.9844 87.0982 83.5379C95.1116 74.6652 100 62.9018 100 50C100 37.0871 95.1004 25.3237 87.0647 16.4509ZM95.0781 50.9152C94.9665 56.6853 93.7835 62.2768 91.5513 67.5558C89.6094 72.154 86.942 76.3504 83.6161 80.0558C83.2254 80.5022 82.8125 80.9375 82.3996 81.3616C82.2321 81.5402 82.0536 81.7076 81.8862 81.8862C77.7455 86.0268 72.9241 89.2857 67.5558 91.5513C63.5603 93.2366 59.3973 94.3304 55.1004 94.8103C53.7054 94.9665 52.3103 95.0558 50.8929 95.0781C50.6027 95.0893 50.3013 95.0893 50 95.0893C49.6987 95.0893 49.4085 95.0893 49.1071 95.0781C47.7009 95.0558 46.2946 94.9665 44.8996 94.8103C40.6138 94.3304 36.4397 93.2366 32.4442 91.5513C27.0759 89.2746 22.2545 86.0268 18.1138 81.8862C17.9353 81.7076 17.7567 81.529 17.5893 81.3504C17.1763 80.9263 16.7634 80.4799 16.3728 80.0446C13.0469 76.3393 10.3906 72.1429 8.44866 67.5558C6.21652 62.2768 5.03348 56.6853 4.92188 50.9152H17.1205C17.1205 50.6138 17.1094 50.3125 17.1094 50C17.1094 49.7098 17.1094 49.4196 17.1205 49.1295H4.92188C5.03348 43.3482 6.21652 37.7455 8.45982 32.4554C10.4018 27.8571 13.0692 23.6496 16.4062 19.9442C16.7969 19.4978 17.2098 19.0625 17.6228 18.6384C17.7902 18.471 17.9576 18.2924 18.125 18.125C22.2656 13.9844 27.0871 10.7254 32.4554 8.45982C36.4509 6.77455 40.6138 5.6808 44.9107 5.20089C46.3058 5.04464 47.7009 4.95536 49.1183 4.92188C49.4196 4.91071 49.7098 4.91071 50.0112 4.91071C50.3125 4.91071 50.6027 4.91071 50.904 4.92188C52.3214 4.9442 53.7165 5.04464 55.1116 5.20089C59.3973 5.6808 63.5714 6.77455 67.5558 8.45982C72.9241 10.7254 77.7455 13.9844 81.8862 18.125C82.0536 18.2924 82.221 18.4598 82.3772 18.6272C82.7902 19.0513 83.2031 19.4866 83.5938 19.933C86.9308 23.6496 89.5982 27.846 91.5513 32.4554C93.7835 37.7455 94.9777 43.3482 95.0781 49.1295H82.8795C82.8795 49.4196 82.8906 49.7098 82.8906 50C82.8906 50.3013 82.8906 50.6027 82.8795 50.9152H95.0781Z" fill="#4EB4FF"/>
<path d="M81.1049 50.0001C81.1049 50.3014 81.1049 50.6027 81.0938 50.9152H50.8929V67.0648C50.5915 67.0536 50.2902 67.0536 49.9889 67.0536C49.6987 67.0536 49.3973 67.0536 49.1072 67.0648V50.9152H18.9063C18.8951 50.6139 18.8951 50.3126 18.8951 50.0001C18.8951 49.7099 18.8951 49.4197 18.9063 49.1295H49.1072V32.9018C49.3973 32.9018 49.6987 32.913 49.9889 32.913C50.2902 32.913 50.5915 32.913 50.8929 32.9018V49.1295H81.0938C81.0938 49.4197 81.1049 49.7099 81.1049 50.0001ZM50.8929 5.25675V31.105C50.5915 31.1161 50.2902 31.1161 49.9889 31.1161C49.6987 31.1161 49.3973 31.1161 49.1072 31.105V5.25675C49.4085 5.13398 49.6987 5.02237 50 4.91077C50.3014 5.02237 50.5915 5.14514 50.8929 5.25675ZM50.8929 68.8505V94.7434C50.5915 94.8661 50.3014 94.9777 50 95.0893C49.6987 94.9777 49.4085 94.855 49.1072 94.7434V68.8505C49.3973 68.8393 49.6987 68.8393 49.9889 68.8393C50.2902 68.8393 50.5915 68.8393 50.8929 68.8505Z" fill="#4EB4FF"/>
<path d="M76.4174 74.6094C80.3906 67.5893 82.7232 59.5201 82.8683 50.9152C82.8683 50.6139 82.8795 50.3126 82.8795 50.0001C82.8795 49.7099 82.8795 49.4197 82.8683 49.1295C82.7232 40.5023 80.3906 32.3996 76.3951 25.3684C78.962 23.7724 81.3616 21.9532 83.5826 19.9331C83.1808 19.4867 82.779 19.0514 82.3661 18.6273C80.2232 20.5804 77.9241 22.3215 75.4799 23.8393C70.5803 15.8706 63.5045 9.38621 55.0781 5.20094C53.683 5.0447 52.2879 4.95541 50.8705 4.92193C50.5692 4.91077 50.279 4.91077 49.9777 4.91077C50.279 5.02237 50.5692 5.14514 50.8705 5.25675C51.1272 5.35719 51.3728 5.4688 51.6295 5.56925C57.3661 8.00228 62.5223 11.4733 66.9531 15.9041C69.6428 18.5938 71.9754 21.5514 73.9509 24.7434C72.2768 25.7032 70.5357 26.5737 68.7388 27.3326C63.0692 29.7322 57.0647 31.0045 50.8817 31.1161C50.5804 31.1273 50.279 31.1273 49.9777 31.1273C49.6875 31.1273 49.3862 31.1273 49.096 31.1161C42.9018 31.0045 36.8862 29.7322 31.2054 27.3326C29.4196 26.5737 27.6786 25.7143 26.0045 24.7545C27.9687 21.5626 30.3125 18.5938 33.0022 15.9041C37.433 11.4733 42.5893 8.00228 48.3259 5.56925C48.5826 5.4688 48.8281 5.35719 49.0848 5.25675C49.3862 5.13398 49.6763 5.02237 49.9777 4.91077C49.6763 4.91077 49.3862 4.91077 49.0848 4.92193C47.6674 4.94425 46.2723 5.0447 44.8772 5.20094C36.4509 9.38621 29.375 15.8706 24.4754 23.8505C22.0312 22.3326 19.7321 20.5916 17.5893 18.6384C17.1763 19.0626 16.7634 19.509 16.3728 19.9442C18.5937 21.9643 21.0045 23.7835 23.5714 25.3795C19.587 32.4108 17.2545 40.5023 17.1094 49.1295C17.1094 49.4197 17.0982 49.7099 17.0982 50.0001C17.0982 50.3014 17.0982 50.6027 17.1094 50.9152C17.2656 59.509 19.587 67.5782 23.5603 74.5983C20.9933 76.1943 18.5826 78.0246 16.3616 80.0447C16.7522 80.4911 17.1652 80.9264 17.5781 81.3505C19.721 79.3974 22.0201 77.6563 24.4643 76.1273C29.3638 84.1184 36.4509 90.6139 44.8884 94.8103C46.2835 94.9666 47.6786 95.0559 49.096 95.0782C49.3973 95.0893 49.6875 95.0893 49.9888 95.0893C49.6875 94.9777 49.3973 94.855 49.096 94.7434C48.8393 94.6429 48.5937 94.5313 48.337 94.4309C42.6004 91.9978 37.4442 88.5268 33.0134 84.096C30.3125 81.3951 27.9687 78.4264 26.0045 75.2233C27.6786 74.2634 29.4196 73.3929 31.2165 72.634C36.8862 70.2344 42.9018 68.9621 49.1071 68.8505C49.3973 68.8393 49.6987 68.8393 49.9888 68.8393C50.2902 68.8393 50.5915 68.8393 50.8928 68.8505C57.087 68.9621 63.0915 70.2344 68.75 72.634C70.558 73.3929 72.2991 74.2634 73.9844 75.2344C72.0201 78.4375 69.6763 81.4063 66.9754 84.1072C62.5446 88.538 57.3884 92.009 51.6518 94.442C51.3951 94.5536 51.1495 94.6541 50.8928 94.7545C50.5915 94.8773 50.3013 94.9889 50 95.1005C50.3013 95.1005 50.5915 95.1005 50.8928 95.0893C52.3103 95.067 53.7053 94.9777 55.1004 94.8215C63.5379 90.6362 70.6138 84.1407 75.5134 76.1496C77.9464 77.6675 80.2567 79.4197 82.3995 81.3728C82.8125 80.9487 83.2143 80.5135 83.6161 80.067C81.3951 78.0246 78.9844 76.2054 76.4174 74.6094ZM50.8928 67.0648C50.5915 67.0536 50.2902 67.0536 49.9888 67.0536C49.6987 67.0536 49.3973 67.0536 49.1071 67.0648C40.3795 67.221 32.1987 69.6094 25.1004 73.6831C24.2076 72.0983 23.404 70.4576 22.6897 68.7724C20.2902 63.1027 19.0179 57.1094 18.9062 50.9152C18.8951 50.6139 18.8951 50.3126 18.8951 50.0001C18.8951 49.7099 18.8951 49.4197 18.9062 49.1295C19.0179 42.9242 20.2902 36.9085 22.6897 31.2389C23.404 29.5425 24.2187 27.8907 25.1228 26.2947C32.2098 30.3684 40.3906 32.7567 49.1071 32.9018C49.3973 32.9018 49.6987 32.913 49.9888 32.913C50.2902 32.913 50.5915 32.913 50.8928 32.9018C59.6094 32.7456 67.7902 30.3572 74.8772 26.2835C75.7812 27.8795 76.596 29.5313 77.3103 31.2389C79.7098 36.9197 80.9821 42.9353 81.0937 49.1295C81.0937 49.4197 81.1049 49.7099 81.1049 50.0001C81.1049 50.3014 81.1049 50.6027 81.0937 50.9152C80.9821 57.0983 79.7098 63.1027 77.3103 68.7724C76.596 70.4688 75.7924 72.1094 74.8884 73.6942C67.8013 69.6094 59.6205 67.221 50.8928 67.0648Z" fill="#FFD84E"/>
</svg>
