<svg width="130" height="100" viewBox="0 0 130 100" fill="none" xmlns="http://www.w3.org/2000/svg">
<path d="M63.4475 72.075C63.4475 72.2508 63.4851 72.4249 63.558 72.5873C63.6309 72.7497 63.7378 72.8973 63.8725 73.0216C64.0072 73.1459 64.1672 73.2445 64.3432 73.3118C64.5192 73.3791 64.7079 73.4137 64.8984 73.4137C65.089 73.4137 65.2776 73.3791 65.4537 73.3118C65.6297 73.2445 65.7896 73.1459 65.9244 73.0216C66.0591 72.8973 66.166 72.7497 66.2389 72.5873C66.3118 72.4249 66.3493 72.2508 66.3493 72.075C66.3493 71.72 66.1965 71.3795 65.9244 71.1284C65.6523 70.8774 65.2832 70.7363 64.8984 70.7363C64.5136 70.7363 64.1446 70.8774 63.8725 71.1284C63.6004 71.3795 63.4475 71.72 63.4475 72.075Z" fill="#FFD84E"/>
<path d="M130 82.664V0H0V82.664H46.4431V94.1098H27.8862V100H102.157V94.1098H83.5859V82.664H130ZM6.38393 5.89023H123.616V63.0656H6.38393V5.89023ZM77.202 94.1098H52.827V82.664H77.202V94.1098ZM6.38393 76.7738V65.7296H123.616V76.7738H6.38393Z" fill="#4EB4FF"/>
<path d="M15.022 25.3283L28.1845 13.1836L30.2365 15.0768L17.0738 27.2213L15.022 25.3283ZM15.8088 38.1484L42.093 13.8967L44.1449 15.79L17.8605 40.0414L15.8088 38.1484Z" fill="#FFD84E"/>
</svg>
