<svg width="1087" height="886" viewBox="0 0 1087 886" fill="none" xmlns="http://www.w3.org/2000/svg">
<path d="M804.144 414.039C894.108 414.039 983.68 414.051 1073.25 414C1077.35 413.997 1081.08 414.895 1083.87 418.949C1086.95 423.42 1087.85 428.622 1086.16 434.266C1084.41 440.098 1080.89 443.16 1076.11 443.906C1074.96 444.085 1073.78 443.953 1072.6 443.953C720.166 443.954 367.728 443.954 15.2927 443.954C14.2513 443.954 13.2052 444.027 12.1684 443.933C5.76281 443.346 0.92128 436.779 1.00097 428.828C1.0791 421.045 5.80735 414.692 12.0427 414.069C13.3372 413.939 14.6459 414.039 15.9475 414.039C278.55 414.039 541.152 414.039 804.144 414.039Z" fill="#00A9C4"/>
<path d="M672.451 102.415C672.451 145.411 672.437 187.907 672.476 230.403C672.48 234.226 672.706 238.059 673.046 241.867C673.581 247.844 675.742 253.018 680.136 257.392C685.341 262.573 690.425 268.059 690.406 276.138C690.388 283.589 687.938 289.959 681.139 293.802C674.013 297.83 666.722 297.537 659.732 293.45C650.978 288.331 645.881 280.225 642.247 271.049C641.646 269.532 641.173 267.965 640.837 266.992C631.677 272.428 623.063 278.967 613.405 283.018C574.664 299.268 535.141 303.414 495.516 286.277C452.936 267.862 432.125 220.821 447.029 177.58C455.381 153.35 473.698 139.206 496.848 130.528C512.437 124.685 528.682 122.157 545.311 121.955C569.788 121.658 594.288 121.669 618.525 117.49C633.553 114.898 633.459 114.848 633.571 99.9646C633.658 88.5326 632.997 77.2946 627.15 67.0456C617.02 49.2906 600.513 41.5086 581.339 38.5496C550.963 33.8616 522.748 39.4066 497.252 57.2816C493.394 59.9866 488.815 62.2376 484.249 63.2356C475.748 65.0936 467.598 60.4476 464.043 52.8596C460.329 44.9316 461.643 35.3166 469.011 30.3556C479.303 23.4256 489.977 16.4646 501.454 11.9966C541.725 -3.67943 582.639 -4.43842 622.696 12.3606C655.602 26.1606 672.16 52.0026 672.447 87.9176C672.484 92.5836 672.452 97.2496 672.451 102.415ZM633.617 228.862C633.743 228.215 633.98 227.569 633.981 226.922C634.002 202.108 634.014 177.295 633.96 152.481C633.958 151.467 633.303 150.455 632.176 149.45C621.41 151.43 610.717 154.315 599.862 155.187C581.668 156.649 563.36 156.63 545.123 157.637C536.711 158.101 528.235 158.946 519.996 160.633C507.348 163.223 495.841 168.348 488.29 179.636C474.923 199.619 481.715 232.109 502.131 246.569C516.744 256.919 533.68 259.43 550.812 260.162C559.284 260.524 567.998 259.018 576.367 257.244C597.511 252.761 616.909 244.391 633.617 228.862Z" fill="#01A9C4"/>
<path d="M348.862 807.415C348.862 736.125 348.862 665.344 348.862 593.962C351.145 593.962 352.943 593.962 354.742 593.962C386.902 593.962 419.063 593.779 451.221 594.031C471.295 594.188 491.094 596.591 509.942 604.139C539.672 616.044 554.238 638.455 555.436 670.045C556.033 685.765 553.895 700.975 546.418 715.065C535.472 735.675 517.525 747.125 495.709 753.415C494.275 753.835 492.832 754.214 490.865 754.754C493.386 758.384 495.704 761.774 498.086 765.124C519.229 794.844 540.395 824.545 561.523 854.285C566.368 861.095 566.622 868.294 562.304 875.364C558.139 882.184 551.867 885.475 543.777 884.795C537.468 884.265 533.139 880.685 529.624 875.655C503.311 837.965 476.9 800.344 450.654 762.614C448.535 759.564 446.459 758.255 442.626 758.305C424.489 758.545 406.346 758.415 387.45 758.415C387.45 760.645 387.45 762.555 387.45 764.465C387.45 797.955 387.499 831.455 387.426 864.945C387.394 879.605 373.683 889.025 360.471 883.455C353.04 880.335 348.905 874.625 348.881 866.405C348.823 846.905 348.862 827.415 348.862 807.415ZM460.925 722.425C468.963 721.295 477.166 720.824 485.004 718.884C498.977 715.424 510.481 707.905 513.935 693.095C515.91 684.635 516.315 675.374 515.25 666.744C513.714 654.284 506.062 645.285 494.81 639.405C483.567 633.525 471.349 632.325 458.384 630.845C434.8 630.845 411.216 630.845 387.419 630.845C387.419 661.695 387.419 692.354 387.419 723.124C388.648 723.254 389.461 723.405 390.274 723.405C410.26 723.415 430.247 723.454 450.232 723.364C453.498 723.344 456.761 722.775 460.925 722.425Z" fill="#01A9C4"/>
<path d="M72.5521 697.925C87.3381 664.375 101.982 631.175 116.5 597.925C117.742 595.08 119.231 593.835 122.428 593.895C132.257 594.078 142.093 594.056 151.923 593.906C155.013 593.858 156.665 594.86 157.925 597.806C194.632 683.645 231.437 769.445 268.209 855.255C271.07 861.935 272.243 868.695 268.27 875.395C264.104 882.425 257.727 885.265 249.752 884.845C241.725 884.435 236.413 880.105 233.353 872.935C226.17 856.095 219.1 839.205 211.984 822.335C209.333 816.045 206.587 809.795 204.075 803.455C203.104 801.005 201.917 799.795 199.027 799.805C156.698 799.895 114.369 799.905 72.0401 799.795C68.7101 799.785 67.8911 801.675 66.8541 804.045C57.0551 826.455 47.2401 848.875 37.3491 871.245C32.0591 883.215 22.1231 887.885 11.8061 883.445C1.44611 878.975 -2.24391 867.755 2.95509 855.925C19.3581 818.585 35.8371 781.285 52.2771 743.975C58.9891 728.735 65.6781 713.495 72.5521 697.925ZM100.926 726.775C95.6791 738.695 90.4321 750.615 85.1261 762.665C119.252 762.665 152.582 762.665 186.578 762.665C169.811 723.735 153.304 685.405 136.425 646.215C124.399 673.465 112.794 699.765 100.926 726.775Z" fill="#01A9C4"/>
<path d="M941.808 597.259C983.378 585.05 1022.25 589.751 1058.28 613.596C1070.7 621.814 1072.37 635.025 1062.56 643.855C1056.46 649.355 1049.36 649.895 1042.05 646.885C1039.02 645.635 1036.41 643.395 1033.55 641.695C1003.33 623.754 972.188 621.627 940.908 638.085C926.818 645.495 919.538 658.185 920.428 674.765C921.088 686.985 926.968 695.835 937.478 701.765C951.618 709.745 967.298 713.045 982.908 716.435C1002.13 720.605 1021.34 724.725 1039.31 733.085C1055.81 740.755 1070.26 750.874 1078.93 767.484C1095.09 798.464 1085.9 836.465 1056.51 859.625C1031.63 879.235 1002.72 886.035 971.668 884.725C947.208 883.685 923.928 877.605 902.558 865.455C896.248 861.865 890.288 857.385 884.958 852.445C876.098 844.225 875.678 833.225 883.088 824.865C890.368 816.665 901.408 815.955 910.778 823.685C924.438 834.975 939.798 842.685 957.188 845.745C983.278 850.345 1008.41 848.194 1030.68 832.104C1052.6 816.264 1051.25 784.875 1028.07 771.525C1021.19 767.565 1013.88 763.895 1006.3 761.685C989.378 756.755 972.038 753.245 955.098 748.365C942.508 744.735 929.848 740.804 917.978 735.354C887.538 721.364 876.328 696.065 881.668 662.405C886.628 631.075 907.368 611.939 935.368 599.663C937.348 598.796 939.408 598.125 941.808 597.259Z" fill="#02A9C4"/>
<path d="M188.953 23.3886C241.645 -7.84541 305.946 -4.7534 354.284 31.1446C360.054 35.4296 364.827 40.2816 365.173 48.1386C365.515 55.9066 362.551 61.8146 355.743 65.4926C348.91 69.1846 341.987 69.1546 335.418 64.7156C331.557 62.1066 327.972 59.0836 324.068 56.5456C259.892 14.8216 176.393 49.8426 160.088 125.288C146.042 190.278 192.768 253.748 259.095 259.031C286.634 261.224 311.693 253.546 332.71 235.266C342.973 226.339 355.606 230.046 360.712 236.538C367.773 245.513 366.104 257.504 356.109 265.009C310.889 298.963 261.24 305.575 209.382 284.591C157.823 263.727 126.554 224.151 119.602 168.884C111.785 106.74 136.652 58.2496 188.953 23.3886Z" fill="#02A9C4"/>
<path d="M704.667 793.415C704.667 739.125 704.667 685.335 704.667 631.005C702.545 630.905 700.784 630.755 699.024 630.755C677.864 630.745 656.705 630.765 635.546 630.745C624.429 630.725 615.976 622.738 616.027 612.358C616.077 601.876 624.381 594.094 635.635 594.091C694.781 594.076 753.928 594.074 813.068 594.093C824.048 594.097 831.948 601.808 831.968 612.393C831.988 622.672 823.708 630.725 812.988 630.735C791.828 630.765 770.668 630.745 749.508 630.745C747.708 630.745 745.908 630.745 743.328 630.745C743.328 633.085 743.328 635.005 743.328 636.935C743.328 713.075 743.338 789.215 743.318 865.355C743.318 874.475 737.642 881.975 729.186 884.245C720.689 886.515 711.764 883.355 707.556 875.765C705.792 872.585 704.827 868.545 704.79 864.885C704.55 841.235 704.667 817.575 704.667 793.415Z" fill="#00A9C4"/>
<path d="M832.328 75.4146C832.328 135.373 832.328 194.831 832.328 255.084C834.638 255.084 836.558 255.085 838.478 255.085C878.638 255.085 918.798 255.065 958.948 255.1C968.028 255.108 975.408 260.984 977.048 269.288C978.908 278.664 974.348 287.28 965.558 290.641C963.738 291.337 961.678 291.698 959.728 291.7C905.578 291.754 851.418 291.744 797.268 291.732C796.298 291.732 795.328 291.587 793.668 291.453C793.668 289.526 793.668 287.762 793.668 285.997C793.668 198.186 793.668 110.375 793.668 22.5635C793.678 10.1205 801.418 2.01357 813.148 2.08457C824.528 2.15357 832.308 10.3826 832.328 22.4276C832.348 39.9236 832.328 57.4186 832.328 75.4146Z" fill="#00A9C4"/>
<path d="M633.283 229.12C632.964 203.044 632.981 176.708 632.975 149.907C633.303 150.454 633.958 151.466 633.96 152.48C634.014 177.294 634.002 202.108 633.981 226.922C633.98 227.569 633.743 228.215 633.283 229.12Z" fill="#96CADC"/>
<path d="M458.713 631.104C435.588 631.354 412.133 631.354 388.334 631.354C388.334 661.794 388.334 691.705 388.334 722.335C411.931 722.335 435.511 722.334 459.559 722.394C456.761 722.774 453.498 723.344 450.232 723.364C430.247 723.454 410.26 723.414 390.274 723.404C389.461 723.404 388.649 723.254 387.419 723.124C387.419 692.354 387.419 661.694 387.419 630.844C411.216 630.844 434.8 630.844 458.713 631.104Z" fill="#96CADC"/>
</svg>
