<svg width="2653" height="2653" viewBox="0 0 2653 2653" fill="none" xmlns="http://www.w3.org/2000/svg">
<path d="M1265.67 0.800155C1262.33 1.06682 1249.13 1.86682 1236.33 2.66682C1190.07 5.46682 1129.93 13.0668 1081.67 22.1335C854.6 64.8002 643 165.867 467 315.867C416.333 359.067 362.466 412.667 319.666 462.667C185.8 618.934 90.0665 803.6 40.3331 1001.2C4.86645 1142.53 -7.40021 1295.2 5.13312 1439.33C30.9998 1737.07 152.6 2010.93 356.333 2230.13C485 2368.67 645.133 2479.6 821.133 2552.4C1018.07 2633.87 1234.73 2666.4 1449 2646.53C1728.6 2620.67 1989.93 2508.4 2200.6 2323.6C2362.47 2181.33 2485.8 2005.33 2563.93 1804.67C2675.13 1518.8 2682.33 1193.6 2583.8 902C2490.07 624.134 2305.93 384.4 2061.27 221.467C1894.6 110.533 1710.2 40.4002 1510.33 12.1335C1450.07 3.60015 1413.13 1.20015 1337.67 0.666821C1301.4 0.533488 1269 0.533488 1265.67 0.800155ZM1424.33 35.2002C1537.93 44.5335 1633.93 64.0002 1738.33 98.8002C1894.73 151.067 2039.53 233.067 2166.33 341.2C2211.4 379.6 2270.33 438.267 2306.07 480C2312.6 487.734 2319.27 495.467 2320.87 497.334C2353.27 534.934 2406.87 610.267 2437 660.667C2537.27 828.134 2598.47 1015.87 2615.53 1208.67C2619.67 1255.73 2620.73 1286 2619.93 1344.4C2619.13 1405.2 2618.2 1420.93 2612.87 1469.33C2583.13 1738.93 2468.73 1993.07 2286.47 2194C2149.27 2345.33 1978.87 2462.13 1789 2534.93C1705.13 2567.2 1622.07 2589.2 1524.33 2605.2C1470.2 2614 1390.73 2620 1327 2620C1059.67 2620 805.533 2540 585.667 2386.8C401.266 2258.4 251 2080.13 155.266 1876.67C58.5998 1671.2 18.0665 1444.8 37.1331 1216.67C58.0665 964.267 153 724.267 310.866 524C359.533 462.4 422.466 396.667 481.666 345.734C617.8 228.8 773.8 142.133 941.4 90.1335C1044.07 58.2668 1145.13 40.1335 1257 33.3335C1286.73 31.6002 1394.33 32.8002 1424.33 35.2002Z" fill="#F5F5F5"/>
<path d="M1276.07 69.3337C1191.53 72.9337 1108.33 84.667 1029 104C884.6 139.334 752.6 197.334 629.666 279.6C555.8 329.067 500.6 374.267 439 436C376.866 498 328.866 556 282.866 624.667C164.6 800.667 93.2663 1001.87 74.4663 1212C67.2663 1291.87 68.1996 1388.93 77.1329 1466.67C99.9329 1668 169.266 1857.47 281 2024C374.6 2163.6 491.533 2280.4 629.133 2372C805.266 2489.2 1000.2 2558.27 1210.33 2577.87C1281.4 2584.53 1369.4 2584.53 1443 2578C1697.67 2555.07 1942.07 2452.53 2138.33 2286.13C2198.2 2235.47 2260.87 2171.07 2309.13 2110.67C2402.87 1993.33 2475.4 1859.2 2522.07 1716.67C2592.33 1502.13 2603.13 1268.13 2553 1046.93C2473.27 695.067 2243.8 392.934 1925 219.734C1765.27 132.934 1586.73 82.0003 1402.33 70.667C1370.6 68.8003 1305.93 68.0003 1276.07 69.3337ZM1392.33 184C1622.6 194 1838.6 269.734 2021.27 404.667C2038.33 417.334 2075.8 446.8 2082.2 452.667C2083 453.467 2090.07 459.6 2097.8 466.267C2149.4 510.934 2209.53 574.8 2240.73 618.267C2253.8 636.534 2256.87 643.334 2255.67 651.467C2254.87 657.067 2253.93 658.534 2233.27 686.934C2200.07 732.534 2203 727.6 2203 736.667C2203 753.334 2208.33 766 2220.6 778.534C2228.6 786.8 2247.8 800 2251.53 800C2253 800 2271.8 796.667 2293.13 792.667C2314.6 788.667 2334.33 785.334 2337 785.334C2348.73 785.334 2353 790.534 2371 828C2385.8 859.067 2387.67 865.867 2383.93 874.8C2382.6 878.134 2375.27 885.334 2359.53 898.934C2347.13 909.6 2332.2 922.4 2326.33 927.6L2315.67 936.8L2315.27 950.267C2314.6 975.734 2320.87 993.467 2336.07 1009.33L2345 1018.67L2353.67 1018.8C2382.73 1019.07 2433.27 1022.27 2437 1024C2445.4 1028.27 2448.07 1034.53 2455.8 1068.8C2463.53 1103.2 2464.07 1108.13 2461 1115.6C2457.27 1124.27 2460.07 1122.53 2406.33 1150.93C2398.33 1155.33 2388.6 1160.27 2384.87 1162.27C2372.73 1168.4 2370.73 1177.2 2374.33 1209.33C2376.73 1231.07 2377.93 1235.47 2384.47 1245.47L2388.33 1251.6L2431.27 1263.47C2479.53 1276.8 2479.93 1277.07 2483.8 1290.13C2485.53 1296.4 2485.8 1302.27 2484.87 1331.07C2484.2 1353.6 2483.4 1366 2482.2 1368.8C2478.73 1376.93 2472.73 1380.53 2454.87 1385.07C2401.4 1398.8 2387.93 1402.67 2386.33 1404.93C2382.6 1410 2377.13 1422.4 2374.73 1431.2C2370.47 1447.6 2372.07 1474.4 2378.07 1486.4C2379.13 1488.67 2391.13 1495.73 2417.67 1510C2446.07 1525.33 2456.47 1531.47 2458.6 1534.67C2463.4 1541.47 2463.67 1548.8 2459.93 1565.07C2446.87 1621.6 2446.33 1623.2 2437.4 1629.47C2433.27 1632.53 2431.4 1632.67 2405.67 1633.73C2390.6 1634.27 2370.33 1635.07 2360.47 1635.47L2342.73 1636.27L2337.27 1641.2C2321.4 1655.33 2312.2 1682.8 2314.6 1708.27L2315.4 1717.6L2343.53 1742.4C2359 1756.13 2374.33 1769.87 2377.67 1772.93L2383.67 1778.53V1788.4V1798.13L2368.6 1828.67C2359.67 1846.8 2352.07 1860.4 2349.93 1862.27C2345 1866.4 2338.73 1869.33 2334.33 1869.33C2332.33 1869.33 2312.07 1865.73 2289.4 1861.2L2248.07 1853.07L2242.47 1855.6C2239.53 1856.93 2232.73 1862.13 2227.53 1867.33C2216.6 1878.13 2209.93 1890.27 2205.67 1907.2C2201 1925.87 2199.8 1923.07 2228.73 1963.33C2263.67 2012.13 2264.33 2004.53 2219.8 2057.87C2205.67 2074.67 2200.33 2078.53 2190.6 2078.67C2185.13 2078.67 2182.87 2077.73 2137.27 2057.2C2121.27 2049.87 2106.47 2044 2104.33 2044C2098.07 2044 2084.33 2050.13 2075.93 2056.67C2071.67 2060 2065.53 2066.53 2062.07 2071.07C2056.2 2078.93 2047.93 2095.07 2046.2 2102C2045.67 2104.27 2050.07 2116.13 2061.8 2144.27C2079.93 2187.6 2080.87 2191.33 2075.13 2200.4C2071.8 2206 2066.6 2210.27 2037.53 2232.8C2017 2248.67 2011.53 2251.33 2001.8 2250.4C1996.07 2249.87 1992.47 2247.47 1960.87 2223.6C1933.4 2202.8 1925.4 2197.33 1922.2 2197.33C1914.6 2197.33 1897.67 2202.53 1886.87 2208.13C1874.73 2214.4 1861.53 2226.4 1855.67 2236.4L1852.07 2242.67L1858.87 2283.07C1867.4 2333.33 1867.4 2334.27 1860.33 2341.87C1855.67 2346.8 1850.2 2349.87 1823.93 2362C1798.33 2373.87 1791.8 2376.27 1786.33 2376.4C1773.4 2376.67 1775.53 2378.8 1726.33 2319.47L1714.33 2305.07L1698.33 2305.73C1672.07 2306.93 1653.67 2313.73 1639.53 2327.33L1632.6 2334L1630.47 2373.33C1627.8 2422.13 1627.67 2423.07 1623.4 2428C1617.8 2434.8 1611.53 2436.93 1576.73 2444C1527.27 2454.27 1531.27 2456.4 1504.73 2403.33L1485 2364L1477.93 2361.87C1466.2 2358.53 1449.67 2357.2 1438.73 2358.67C1426.6 2360.4 1422.33 2361.73 1409.27 2367.73L1399 2372.4L1395.67 2383.2C1393.93 2389.2 1388.2 2408.27 1383.13 2425.73C1378.07 2443.33 1372.73 2458.8 1371.4 2460.27C1370.07 2461.87 1366.47 2464.27 1363.27 2465.6C1358.2 2467.87 1354.2 2468.13 1326.6 2468.27C1284.87 2468.27 1282.2 2467.2 1276.47 2447.2C1263.93 2402.8 1254.73 2373.73 1252.6 2372.27C1244.87 2366.27 1229.13 2360.8 1214.07 2358.67C1202.07 2357.07 1187.8 2358.4 1175 2362.13L1168.33 2364.13L1149.13 2402.53C1128.33 2444 1126.47 2446.53 1115.4 2449.2C1109.53 2450.67 1106.2 2450.13 1076.33 2444C1058.47 2440.27 1041.13 2436 1037.93 2434.53C1034.73 2432.93 1030.73 2429.6 1029 2426.8C1026.07 2422.27 1025.8 2419.73 1023.8 2384.67C1020.73 2331.33 1021.27 2334.13 1014.33 2327.6C999.666 2313.47 981.533 2306.93 955 2305.87L938.333 2305.2L911 2338.53C892.733 2360.8 882.2 2372.53 879 2374.13C869.266 2378.93 863.533 2377.6 830.333 2362.53C796.866 2347.33 789.4 2342.13 787.666 2333.33C787.133 2330.27 789.4 2313.73 794.066 2285.6L801.266 2242.4L796.333 2234.93C784.066 2216 758.066 2200.13 735.133 2197.87L727.666 2197.07L697.933 2219.47C654.866 2252.13 657.266 2250.67 649 2250.67C639.666 2250.67 635.666 2248.4 606.2 2225.33C579.4 2204.4 575 2199.47 575 2189.6C575 2185.73 579.533 2173.33 591.533 2144.53L608.066 2104.93L605.533 2097.6C598.733 2078 583 2058.53 567.133 2050.13C551.266 2041.87 549.8 2042 521.533 2054.67C472.066 2077.07 467.933 2078.67 462.466 2078.67C451.8 2078.67 447.666 2075.2 424.866 2047.33C413.266 2032.93 402.6 2019.07 401.4 2016.27C400.066 2013.6 399 2008.53 399 2005.2C399 1999.6 400.066 1997.6 415.266 1976.53C424.2 1964.13 433.533 1950.93 436.066 1947.33C438.733 1943.6 443.133 1937.47 446.066 1933.47L451.4 1926.27L448.733 1912.53C443.533 1886.4 428.866 1864.27 411.533 1856.27L404.866 1853.07L363.933 1861.2C341.4 1865.73 321.266 1869.33 319 1869.33C314.066 1869.33 306.066 1865.47 302.066 1861.07C297 1855.6 270.066 1799.47 269 1792.27C267.4 1780.67 269.4 1778.13 305 1746.8C329.666 1724.93 337.266 1717.6 338.2 1714.27C338.733 1711.87 339 1703.33 338.6 1695.33C337.533 1672.8 330.733 1655.6 317.666 1642.53L311.533 1636.4L294.2 1635.6C284.733 1635.07 264.466 1634.27 249.266 1633.87C224.066 1633.07 221.133 1632.67 217.4 1630.13C207.8 1623.6 206.333 1620.13 198.466 1586.4C190.333 1552 189.533 1543.2 193.666 1536.4C196.866 1531.07 198.333 1530.13 240.733 1507.33L275.133 1488.67L278.066 1479.33C281.8 1467.2 282.066 1443.73 278.6 1430.8C276.066 1421.47 269.133 1406.27 266.2 1403.87C265.266 1403.07 245.666 1397.47 222.733 1391.47C165.533 1376.27 168.466 1379.6 168.333 1328C168.333 1291.87 169 1286.53 174.466 1280C178.333 1275.47 180.2 1274.8 231.666 1260.8C267 1251.2 266.333 1251.47 273.133 1238.13C275.8 1233.2 277 1227.6 278.466 1214.27C281.4 1187.73 281.4 1179.07 278.2 1172C275.4 1166 275 1165.73 242.866 1148.8C195.666 1123.87 196.6 1124.4 193.8 1118.8C188.866 1109.33 189.133 1106.53 196.733 1072.67C200.733 1055.07 204.866 1038.53 205.933 1036C208.733 1029.6 214.466 1024.27 220.2 1022.67C222.866 1022 243.266 1020.8 265.666 1019.87C288.066 1019.07 307.266 1017.87 308.333 1017.33C311.666 1015.6 323 1003.47 327.133 997.467C334.733 986.134 340.066 962 338.466 945.467C337.8 937.334 337.4 936.534 332.066 931.867C328.866 929.2 314.066 916.4 299 903.467C283.933 890.4 271 878.267 270.066 876.267C269.133 874.267 268.466 869.2 268.333 865.067C268.333 857.867 269.4 855.067 283.533 826.4C300.2 792.267 303.933 786.934 313.4 785.734C316.866 785.334 333 787.6 360.466 792.667L402.2 800.4L408.066 797.2C423.933 788.934 439.133 774.267 445 761.734C449.266 752.8 452.2 733.6 449.933 728.8C449.133 727.067 441.933 716.667 433.933 705.734C397.8 656.534 397.666 656.4 397.666 649.334C397.666 640.4 398.866 637.734 411.266 620.134C436.2 584.667 489.533 526.267 535.4 484.534C645.8 383.734 765.933 309.334 903.666 256.667C1012.47 214.934 1135.8 189.6 1256.33 184.134C1291.27 182.534 1357 182.534 1392.33 184Z" fill="#F5F5F5"/>
<path d="M1652.2 352C1617.27 355.2 1608.2 362.4 1587.27 403.467C1572.6 432.134 1569.27 436.534 1560.07 439.334C1556.2 440.4 1551.53 441.334 1549.4 441.334H1545.67V396.667V352H1520.33H1495V457.334V562.667H1520.33H1545.67V516.667V470.667H1549.4C1554.73 470.667 1563.13 473.334 1567.27 476.134C1573.8 480.8 1597.8 519.2 1618.33 557.734L1621 562.667H1650.6C1667 562.667 1680.33 562.267 1680.33 561.867C1680.33 560.534 1640.87 495.467 1634.47 486.4C1623.27 470.534 1616.87 464.4 1605.53 458.8L1595 453.734L1599.13 452C1604.47 449.734 1615 439.334 1617.93 433.334C1619.13 430.8 1623.4 421.734 1627.4 413.2C1639.27 387.867 1646.2 382.667 1668.6 382.667H1679.13L1678.73 366.934L1678.33 351.334L1671 351.2C1667 351.067 1658.47 351.467 1652.2 352Z" fill="#F5F5F5"/>
<path d="M984.333 457.334V562.667H1010.07L1035.67 562.534L1086.33 494.534L1137 426.534L1137.4 494.667L1137.67 562.667H1161.67H1185.67L1185.4 457.6L1185 352.667L1160.07 352.267L1135.27 352L1123.8 367.6C1117.53 376.267 1106.6 391.067 1099.53 400.667C1092.47 410.134 1082.07 424.267 1076.47 432C1070.87 439.734 1058.73 456.134 1049.53 468.534L1033 491.067L1032.33 421.867L1031.67 352.667L1008.07 352.267L984.333 352V457.334Z" fill="#F5F5F5"/>
<path d="M1239.93 352.934C1239.4 353.334 1239 400.8 1239 458.267V562.667H1265H1291V475.334V388H1340.33H1389.67V475.334V562.667L1415.4 562.4L1441 562V457.334V352.667L1340.87 352.267C1285.8 352.134 1240.33 352.4 1239.93 352.934Z" fill="#F5F5F5"/>
<path d="M1276.33 629.467C1143.67 638.667 1013.13 687.867 905.666 769.067C854.066 808.133 807.133 855.2 768.599 906.667C653.133 1060.4 606.733 1251.87 638.466 1442.67C654.333 1538.4 690.999 1630.67 746.066 1713.33C766.599 1744.27 791.666 1775.87 814.333 1799.73C818.733 1804.4 822.599 1808.8 822.733 1809.47C822.999 1810.13 833.266 1820.13 845.399 1831.6C866.733 1851.47 895.933 1875.87 915.666 1890.27C967.266 1927.73 1027.8 1960.13 1086.73 1981.6C1222.87 2031.2 1372.33 2037.33 1511.4 1999.2C1629 1966.93 1733.53 1905.87 1820.33 1818.8C1834.6 1804.4 1852.6 1785.2 1860.2 1776C1941.93 1678 1994.07 1565.87 2015 1442.93C2025.93 1378.8 2027.4 1299.73 2018.87 1235.6C2002.87 1114.8 1957.53 1003.73 1884.47 906.267C1849.93 860.133 1801 810.533 1755.67 775.2C1645.13 689.333 1514.47 639.333 1375 629.467C1352.6 627.867 1300.47 627.867 1276.33 629.467ZM1369.93 664C1507.67 673.333 1633.53 722.4 1742.33 809.067C1769.27 830.533 1818.07 878.667 1838.33 903.733C1923 1008.4 1971.67 1124.13 1986.47 1256.67C1987.53 1266.93 1988.87 1292.4 1989.27 1313.33C1990.07 1354.4 1988.2 1386.13 1983 1422C1964.73 1547.07 1911 1664.27 1827.93 1760.27C1812.07 1778.67 1772.73 1817.6 1755.67 1831.87C1665.27 1907.2 1562.47 1956.4 1451.67 1977.2C1406.2 1985.87 1376.07 1988.53 1327 1988.53C1287.13 1988.67 1269.4 1987.47 1233.67 1982.53C1065.13 1959.2 912.333 1871.2 805.266 1735.6C734.199 1645.6 686.733 1535.47 670.466 1422.67C661.933 1364 661.533 1295.87 669.133 1238.67C698.599 1017.2 838.066 824.8 1039.27 728C1141.53 678.933 1257.4 656.4 1369.93 664Z" fill="#F5F5F5"/>
<path d="M1151.67 957.467C1131.53 960.267 1108.73 964.4 1071.67 972.133C1023.53 982.133 997.266 986.133 966.466 988.133C943.933 989.6 941 989.467 923 986.8C912.333 985.333 893.133 981.333 880.333 978C842.333 968.133 818.733 962.533 818.2 963.067C817.666 963.467 836.866 1134.27 859.666 1333.33C863.666 1368.13 873 1449.47 880.333 1514C887.666 1578.53 893.933 1633.6 894.466 1636.27C895.4 1642 897.666 1644 911.666 1651.07C924.333 1657.33 941.933 1663.47 955.933 1666.27C974.733 1670.13 1023.53 1669.47 1075.67 1664.67C1125.13 1660.13 1161.4 1659.6 1182.6 1663.07C1198.2 1665.6 1224.2 1671.87 1257.4 1681.07L1280.6 1687.47L1275.13 1691.07C1271.13 1693.73 1269.67 1695.6 1269.67 1698C1269.67 1701.73 1267 1702.27 1259 1700C1250.73 1697.73 1216.33 1692 1194.33 1689.33C1156.6 1684.53 1142.6 1684.53 1088.33 1689.33C1003 1696.8 966.2 1696.27 938.066 1687.33C927 1683.87 908.466 1673.87 901.666 1667.6L897.4 1663.73L898.333 1671.6C899.666 1682.93 899.666 1682.93 908.2 1688.4C933.666 1704.8 967.533 1710.67 1019.67 1708C1033.67 1707.2 1063.27 1705.07 1085.67 1703.07C1148.2 1697.73 1171.13 1698.4 1227.67 1708C1258.33 1713.07 1275.67 1717.73 1288.07 1723.87C1302.87 1731.33 1308.2 1732.53 1327 1732.53C1346.07 1732.53 1354.47 1730.67 1368.07 1723.07C1381.93 1715.47 1420.73 1707.2 1467 1702.13C1506.47 1697.87 1503.27 1697.73 1595.67 1705.47C1637.4 1708.93 1679.8 1709.2 1697 1706.13C1716.73 1702.53 1728.07 1698.53 1743.13 1689.6L1753.4 1683.73L1754.6 1674.53C1755.27 1669.47 1755.67 1665.33 1755.4 1665.33C1755.27 1665.33 1751.93 1667.73 1748.2 1670.53C1732.33 1682.53 1712.07 1690.13 1687.27 1693.47C1670.47 1695.73 1621.8 1694.13 1574.33 1689.87C1522.47 1685.2 1489.93 1684.93 1459 1689.07C1436.73 1692.13 1405.8 1697.33 1392.33 1700.4L1385 1702.13L1383.67 1698.13C1382.87 1695.6 1380.47 1692.93 1377.13 1691.2C1374.33 1689.6 1372.6 1688 1373.13 1687.6C1375.13 1686.53 1438.73 1669.6 1451.67 1666.8C1469.4 1662.8 1493.4 1660 1508.07 1660C1515.13 1660 1542.33 1661.87 1568.33 1664C1665.67 1672.4 1693.13 1671.07 1730.07 1656.27C1743.27 1650.8 1757.67 1643.07 1758.47 1640.67C1758.6 1639.87 1763.4 1599.47 1768.87 1550.67C1774.47 1501.87 1781.13 1443.33 1783.67 1420.67C1801.93 1260.4 1818.6 1114 1823.8 1068.67C1835.27 968 1835.8 962.667 1834.6 962.667C1833.93 962.667 1814.6 967.467 1791.8 973.2C1735.67 987.467 1728.87 988.533 1700.33 988.4C1665.67 988.133 1643.13 984.8 1558.33 967.467C1519.67 959.6 1504.73 957.467 1482.33 956.4C1451.4 955.067 1431.13 959.2 1405.67 972C1385.13 982.4 1366.6 996.533 1344.07 1019.33L1333 1030.4L1333.67 1048.93L1334.33 1067.33L1362.33 1068.27C1402.33 1069.6 1451 1071.87 1475.4 1073.47C1491 1074.67 1497 1074.53 1498.07 1073.47C1502.07 1069.47 1528.47 1073.07 1536.47 1078.8C1538.6 1080.27 1545.53 1091.6 1554.33 1108.13C1577 1150.4 1587.67 1175.6 1597.27 1209.2C1602.6 1227.87 1602.73 1228 1610.73 1225.87C1613.13 1225.2 1613.67 1224.13 1613.67 1219.33C1613.67 1215.6 1614.6 1212.53 1616.6 1210C1621.53 1203.6 1626.2 1202.67 1650.33 1202.67H1672.33L1676.33 1206.27C1681 1210.67 1684.33 1223.87 1684.33 1238.67C1684.33 1246.8 1683.93 1248.13 1681.4 1249.87C1677.13 1252.53 1629.8 1256 1622.07 1254.13C1618.87 1253.47 1616.07 1253.2 1615.53 1253.6C1615.13 1254 1615.93 1258.13 1617.13 1262.8C1618.6 1268 1619.53 1276.93 1619.67 1285.33C1619.93 1297.33 1620.47 1300.53 1623.67 1308C1629.13 1320.93 1631.4 1338.13 1630.33 1361.33C1629.93 1372 1629.13 1424.53 1628.6 1478.13C1627.8 1561.87 1627.4 1575.87 1625.67 1578C1621.27 1583.33 1616.47 1584 1582.87 1584C1535.53 1584 1537.67 1586 1537.67 1540.27V1509.6L1525.4 1509.07C1514.87 1508.67 1511.8 1508 1505 1504.67L1497 1500.67H1415.67H1334.33L1333.93 1591.6L1333.67 1682.67H1326.33H1319V1591.33V1499.87L1238.07 1500.27L1157 1500.67L1147.4 1504.93C1139 1508.8 1136.47 1509.33 1126.47 1509.33H1115V1541.33C1115 1569.33 1114.73 1573.87 1112.73 1576.93C1108.47 1583.33 1104.47 1584 1069.67 1584C1036.6 1584 1034.73 1583.73 1028.73 1578.27L1025.67 1575.6V1486.67C1025.67 1427.73 1025.13 1394.13 1024.2 1386.67C1023.27 1380.4 1022.6 1366 1022.6 1354.67C1022.73 1331.2 1025 1317.47 1030.87 1304.67C1034.2 1297.47 1034.47 1295.47 1033.93 1286C1033.4 1276.4 1035.27 1263.6 1038.33 1255.6C1039.13 1253.87 1038.6 1253.33 1035.93 1253.33C1034.07 1253.33 1031.13 1253.87 1029.4 1254.53C1025.93 1255.73 977.8 1252.53 972.866 1250.67C968.6 1248.93 967.666 1242.27 969.533 1228.13C971.666 1213.6 975 1205.73 979.933 1203.87C982.2 1203.07 992.333 1202.67 1005.8 1202.93C1026.73 1203.33 1028.07 1203.47 1032.73 1206.67C1038.2 1210.4 1040.33 1214.27 1040.33 1220.53C1040.33 1225.33 1041.93 1226.67 1048.2 1226.67C1051.67 1226.67 1051.93 1226.13 1054.33 1216.27C1060.2 1191.33 1071.53 1161.87 1087.13 1131.33C1115.13 1076.4 1114.47 1077.47 1128.73 1073.73C1137 1071.6 1153.93 1071.47 1155.93 1073.47C1157 1074.53 1166.47 1074.27 1189.8 1072.8C1207.67 1071.6 1244.07 1070 1270.6 1069.07L1318.87 1067.47L1319.27 1048.8L1319.67 1030L1305 1015.2C1277.4 987.467 1246.33 967.867 1218.2 960.533C1207.13 957.6 1201.53 956.933 1183 956.667C1170.87 956.4 1156.87 956.8 1151.67 957.467Z" fill="#F5F5F5"/>
<path d="M1233.67 1096.13C1152.6 1098.93 1122.07 1100.8 1118.6 1103.07C1111.27 1107.87 1082.33 1172.8 1074.87 1201.6C1071.13 1215.6 1070.73 1228.4 1073.93 1231.47C1076.07 1233.6 1078.33 1233.6 1103.27 1232.27C1166.87 1228.53 1221.13 1227.47 1328.33 1227.47C1434.6 1227.47 1479.13 1228.4 1548.87 1232.13L1576.87 1233.73L1579.27 1230.67C1585.67 1222.8 1579.27 1196.13 1560.07 1151.6C1549 1125.6 1539.93 1108 1535.8 1104.13C1533 1101.47 1530.73 1100.8 1522.73 1100.4C1429.93 1095.6 1301.4 1093.73 1233.67 1096.13Z" fill="#F5F5F5"/>
<path d="M1065.27 1315.2C1059.4 1317.33 1059.93 1317.07 1057.8 1320.93C1055.93 1324.67 1055.93 1342.93 1057.8 1347.07C1060.2 1352.27 1064.47 1353.33 1083.53 1353.33C1096.33 1353.33 1102.73 1353.87 1106.07 1355.33C1112.07 1357.87 1118.6 1357.87 1123 1355.33C1125.13 1354.13 1130.2 1353.47 1136.6 1353.33C1145.27 1353.33 1147.67 1353.87 1151.53 1356.53C1157.8 1360.8 1167.4 1361.87 1175.93 1359.33C1179.67 1358.27 1183.4 1356.4 1184.33 1355.33C1185.67 1353.73 1189.13 1353.33 1199.8 1353.33C1207.4 1353.33 1213.67 1353.07 1213.67 1352.67C1213.67 1352.27 1211.27 1346.93 1208.2 1340.67C1201.93 1327.87 1193 1318.4 1185 1316.13C1182.07 1315.33 1156.73 1314.4 1125.13 1314C1079.27 1313.33 1069.53 1313.6 1065.27 1315.2Z" fill="#F5F5F5"/>
<path d="M1491 1314.67C1466.2 1315.47 1461.4 1316.93 1453.93 1326.13C1450.07 1330.8 1440.33 1349.33 1440.33 1352C1440.33 1352.8 1445.67 1353.33 1453.67 1353.33C1465.4 1353.33 1467.4 1353.73 1471.53 1356.53C1478.07 1360.93 1486.73 1362 1495.53 1359.47C1499.4 1358.27 1503.4 1356.4 1504.33 1355.33C1506.6 1352.53 1526.6 1352.53 1530.2 1355.33C1533.4 1357.73 1542.07 1357.87 1546.07 1355.6C1547.93 1354.67 1556.87 1353.73 1569.93 1353.33C1589.53 1352.67 1591.13 1352.4 1593.93 1349.6C1596.73 1346.93 1597 1345.33 1597 1334.13C1597 1313.47 1596.6 1313.2 1548.73 1313.6C1529.13 1313.73 1503.13 1314.13 1491 1314.67Z" fill="#F5F5F5"/>
<path d="M1105.27 1385.47C1104.07 1386.13 1102.07 1388.67 1100.87 1390.8C1095 1402.27 1110.47 1413.33 1120.87 1405.2C1126.07 1401.07 1127.4 1396.8 1125.13 1391.33C1124.07 1388.93 1122.07 1386.27 1120.6 1385.47C1117.13 1383.6 1108.47 1383.6 1105.27 1385.47Z" fill="#F5F5F5"/>
<path d="M1530.87 1387.87C1528.2 1390.53 1527 1393.07 1527 1396C1527 1398.93 1528.2 1401.47 1530.87 1404.13C1541.27 1414.53 1558.2 1403.47 1552.2 1390.27C1548.87 1383.07 1537 1381.73 1530.87 1387.87Z" fill="#F5F5F5"/>
<path d="M1209.8 1394.8C1206.47 1396.8 1205.67 1397.87 1206.87 1399.07C1207.93 1400.13 1240.33 1400.4 1325.27 1400.27C1389.67 1400.27 1443.4 1400.13 1444.73 1400C1448.33 1400 1447.4 1396.8 1443.13 1394.27C1439.53 1392.13 1430.6 1392 1326.73 1392C1215.53 1392 1214.33 1392 1209.8 1394.8Z" fill="#F5F5F5"/>
<path d="M1199 1415.87C1183.27 1416.4 1171.93 1417.33 1170.33 1418.27C1165.93 1420.8 1162.6 1425.07 1163.4 1427.33C1164.2 1429.07 1181.4 1429.33 1327.27 1429.07C1488.07 1428.67 1490.33 1428.67 1490.33 1426C1490.33 1424.53 1488.07 1421.87 1484.6 1419.47L1478.87 1415.47L1351.93 1415.2C1282.07 1415.2 1213.27 1415.47 1199 1415.87Z" fill="#F5F5F5"/>
<path d="M463 1038.53C461.533 1043.47 460.333 1048.13 460.333 1048.8C460.333 1049.47 474.6 1064.27 492.067 1081.73C517.133 1106.93 522.867 1113.33 519.667 1112.53C517.533 1112 500.333 1107.2 481.667 1101.87L447.667 1092.27L444.867 1101.87C443.267 1107.07 442.067 1111.47 442.2 1111.6C442.6 1112 555.8 1144.4 557.533 1144.53C558.867 1144.67 560.467 1141.33 562.333 1134.4L565.267 1124.13L532.733 1092.53C514.867 1075.2 500.467 1060.8 500.6 1060.53C500.867 1060.4 517.533 1064.93 537.667 1070.67C557.8 1076.53 575 1081.33 575.8 1081.33C577.667 1081.33 583.4 1063.73 581.933 1062.53C581 1061.73 468.6 1029.33 466.733 1029.33C466.2 1029.33 464.6 1033.47 463 1038.53Z" fill="#F5F5F5"/>
<path d="M2181 1065.73C2159.4 1082.53 2149 1092.8 2147.8 1098.27L2146.87 1102.53L2142.33 1099.87C2139.53 1098.13 2133.53 1096.8 2125.53 1096C2104.6 1093.73 2100.73 1091.73 2098.2 1082C2097.4 1078.93 2096.87 1078.53 2093.8 1079.33C2083.4 1081.87 2080.33 1082.93 2080.33 1084C2080.33 1087.2 2085 1098.4 2087.93 1102.4C2093.4 1109.6 2095 1110.13 2128.33 1114.67C2136.6 1115.73 2138.87 1116.67 2141.53 1119.6L2144.73 1123.2L2122.87 1128.67C2110.87 1131.73 2099.4 1134.53 2097.4 1135.07L2093.93 1136L2096.33 1145.47C2097.67 1150.67 2099.13 1155.2 2099.53 1155.6C2099.93 1156 2111.13 1153.6 2124.6 1150.27C2147.53 1144.67 2149 1144.4 2149.4 1146.8C2150.07 1150.8 2146.87 1154.13 2132.2 1164.53C2115.4 1176.53 2111.13 1180.8 2109.53 1187.6C2108.47 1192.53 2109.93 1207.33 2111.53 1209.07C2111.93 1209.47 2115.93 1208.93 2120.47 1208L2128.6 1206.27L2127.8 1200.4C2126.6 1191.73 2129 1188.4 2143.4 1178.8C2151.4 1173.33 2157 1168.53 2158.47 1165.87L2160.87 1161.47L2164.6 1164.67C2166.6 1166.4 2171.4 1168.93 2175.27 1170.4C2181.8 1172.8 2229.4 1182 2230.47 1181.07C2230.6 1180.8 2229.53 1175.2 2227.8 1168.67L2224.87 1156.67L2209.53 1154.4C2182.73 1150.4 2171.93 1147.73 2168.33 1144.13C2165.27 1141.07 2165.13 1140.8 2167.67 1139.87C2169.13 1139.2 2180.2 1136.27 2192.33 1133.33C2204.47 1130.4 2215 1127.73 2215.93 1127.33C2217 1126.93 2216.73 1124.27 2215 1117.33C2213.67 1112 2212.2 1107.47 2211.93 1107.2C2211.67 1106.8 2200.47 1109.33 2187.27 1112.67C2173.93 1116 2162.47 1118.67 2161.67 1118.67C2159 1118.67 2160.47 1113.33 2164.47 1108.67C2166.73 1106.13 2176.73 1098 2186.47 1090.53C2196.33 1083.2 2204.33 1076.67 2204.33 1075.87C2204.33 1074.53 2199 1052.93 2198.6 1052.4C2198.47 1052.4 2190.6 1058.27 2181 1065.73Z" fill="#F5F5F5"/>
<path d="M433 1148.53C432.466 1151.87 431.933 1157.6 431.8 1161.33L431.666 1168.13L451.266 1179.73C473.133 1192.67 478.333 1196.67 479.666 1200.93C480.733 1204.8 480.733 1204.8 453.133 1201.33C441.4 1199.87 430.733 1198.67 429.533 1198.67C427.133 1198.67 426.466 1200.67 425 1212.8L424.2 1219.47L449.266 1222.4C463 1224 474.733 1225.33 475.4 1225.33C477.666 1225.33 476.066 1230.8 473.266 1232.67C469.266 1235.2 455.666 1239.87 436.066 1245.33L420.6 1249.6L419.8 1255.07C417.133 1274.67 417.133 1275.07 419.8 1274.13C421.133 1273.73 430.2 1271.07 439.666 1268.13C468.866 1259.33 476.866 1255.73 481.666 1249.73C484.333 1246.4 484.6 1246.27 485.8 1248.4C488.333 1252.8 493.133 1256.27 505.4 1262.27C512.2 1265.6 518.733 1269.6 519.8 1271.2C520.733 1272.67 521.666 1276.67 521.666 1280.13C521.666 1286 521.933 1286.4 525.8 1287.2C533.266 1288.67 538.6 1288.13 539.533 1285.87C541 1282.13 540.333 1270.67 538.466 1266.13C535.8 1259.87 530.6 1255.47 517.666 1248.4C501 1239.47 496.333 1236.27 494.733 1232.67C493.933 1230.8 493.533 1229.07 493.933 1228.67C494.333 1228.27 504.466 1229.2 516.466 1230.67C547.933 1234.53 545.133 1235.2 546.6 1223.6C547.266 1218.4 547.666 1213.73 547.4 1213.47C547.133 1213.07 501.8 1206.8 498.066 1206.67C495.266 1206.67 498.866 1200.53 502.733 1198.8C504.466 1197.87 512.866 1195.47 521.133 1193.33C545.133 1187.2 549.133 1184.4 553 1171.6C556.733 1158.8 556.6 1158.53 543.4 1156.8C538.066 1156 537.8 1156.13 537 1160.4C535 1170.53 531.666 1172.8 513 1176.67C501.266 1179.2 498.466 1180.27 494.066 1184.4L491.133 1187.07L490.2 1183.47C488.866 1178 477 1168.27 457.533 1156.8C447.666 1150.93 438.333 1145.33 436.733 1144.27C433.933 1142.53 433.8 1142.67 433 1148.53Z" fill="#F5F5F5"/>
<path d="M2230.33 1195.33C2220.87 1196.4 2212.6 1197.2 2212.07 1197.2C2211.4 1197.33 2211 1199.33 2211 1201.87C2211 1207.2 2215.8 1206.4 2155.4 1211.47L2111 1215.33V1219.33C2111 1224.13 2116.33 1286.8 2116.87 1288.67C2117.27 1289.6 2123.93 1289.47 2137.13 1288.4C2172.33 1285.6 2197.67 1286.4 2213.4 1290.53C2217.8 1291.73 2219 1292.67 2219 1295.07C2219 1301.6 2219.53 1301.73 2243.67 1299.33C2256.07 1298.27 2266.33 1297.07 2266.47 1296.93C2266.73 1296.8 2266.47 1292.8 2266.07 1288.13L2265.27 1279.6L2252.07 1280.53C2244.87 1280.93 2239 1281.2 2238.87 1281.07C2238.6 1279.6 2232.87 1213.87 2233 1213.6C2233.27 1213.47 2238.47 1212.8 2244.73 1212.4C2251 1212 2256.87 1211.2 2257.67 1210.67C2258.87 1210 2259 1207.2 2258.33 1201.47L2257.4 1193.33L2252.6 1193.47C2249.8 1193.6 2239.93 1194.4 2230.33 1195.33ZM2214.07 1234.93C2214.6 1238.8 2215.4 1248.27 2215.8 1255.87C2216.73 1268.53 2216.6 1269.73 2214.47 1268.93C2206.33 1265.73 2163.8 1264.8 2138.33 1267.07C2136.07 1267.33 2135.53 1266.27 2134.87 1259.33C2134.33 1254.93 2133.67 1247.73 2133.4 1243.33L2133 1235.33L2171.67 1231.87C2193 1229.87 2211 1228.27 2211.8 1228.13C2212.6 1228.13 2213.67 1231.07 2214.07 1234.93Z" fill="#F5F5F5"/>
<path d="M418.467 1293.47C417.533 1302.13 415 1351.87 415 1362.13V1369.33H424.867H434.6L435.4 1356.93C435.933 1350.27 436.733 1336.67 437.133 1326.8L438.067 1308.93L448.067 1309.87C453.533 1310.27 461 1310.67 464.733 1310.67H471.267L470.467 1326.27C470.067 1334.93 469.267 1347.2 468.867 1353.47L468.067 1365.07L477.667 1366C484.867 1366.67 487.533 1366.53 488.333 1365.33C488.867 1364.4 489.8 1352.67 490.333 1339.33C490.867 1325.87 491.667 1314.4 492.2 1313.6C492.733 1312.8 498.067 1312.53 506.067 1313.07L519.267 1313.73L518.467 1320.53C518.067 1324.27 517.4 1337.33 516.867 1349.47L515.933 1371.6L525.667 1372.53C530.867 1373.07 535.533 1373.33 535.8 1373.07C536.867 1371.87 540.467 1294.27 539.4 1293.33C538.867 1292.8 517 1291.33 491 1290.13C465 1288.8 438.2 1287.47 431.4 1287.07L419.267 1286.27L418.467 1293.47Z" fill="#F5F5F5"/>
<path d="M2118.47 1320.93C2118.07 1329.6 2117.27 1347.87 2116.87 1361.6L2115.93 1386.67H2124.47C2129.13 1386.67 2156.33 1387.6 2185 1388.67C2213.53 1389.73 2237.13 1390.27 2237.53 1390C2238.2 1389.2 2240.2 1341.33 2240.2 1322.27L2240.33 1308H2230.6H2220.73L2219.93 1324.27C2219.4 1333.07 2219 1346.67 2219 1354.27V1368H2214.6C2212.07 1368 2204.47 1367.6 2197.67 1367.07L2185.27 1366.27L2186.07 1339.07L2187 1312H2177H2167.13L2166.47 1316.27C2166.07 1318.67 2165.53 1330.8 2165.13 1343.2C2164.73 1355.47 2164.33 1365.73 2164.07 1365.87C2163.8 1365.87 2157.8 1365.87 2150.6 1365.6L2137.53 1365.2L2138.47 1335.87L2139.4 1306.67H2132.2C2128.2 1306.67 2123.67 1306.27 2122.2 1305.87C2119.4 1305.2 2119.27 1305.6 2118.47 1320.93Z" fill="#F5F5F5"/>
<path d="M477 1382.4C445.533 1385.73 419.4 1388.67 419.133 1388.93C418.2 1389.6 424.467 1445.07 426.2 1452C427.133 1455.6 428.867 1460 430.2 1461.87C436.2 1471.07 451.667 1477.2 464.067 1475.33C475.4 1473.6 483.267 1468 488.067 1458.27L490.467 1453.47L495 1457.33C508.467 1468.93 531.667 1465.2 541 1450C544.6 1444.27 545 1442.4 544.867 1433.47C544.867 1427.87 543.667 1412.67 542.333 1399.6C539.933 1377.33 539.667 1376 537.133 1376.13C535.533 1376.27 508.6 1379.07 477 1382.4ZM522.067 1402.93C522.6 1404.67 523.267 1412.4 523.8 1420.27C524.867 1437.07 523.667 1440.27 515.133 1442.8C508.867 1444.67 502.6 1442.8 499.533 1438C497.8 1435.47 493 1404.27 494.067 1403.2C494.467 1402.8 513 1400.53 518.467 1400.13C520.467 1400 521.667 1400.93 522.067 1402.93ZM474.067 1410.27C476.2 1423.6 476.6 1440 475 1443.87C470.333 1455.2 451 1456 446.467 1445.07C444.733 1440.93 440.733 1409.73 441.8 1408.67C442.467 1408.13 462.6 1405.73 469.133 1405.47C473 1405.33 473.4 1405.73 474.067 1410.27Z" fill="#F5F5F5"/>
<path d="M2113.67 1401.6C2113.67 1402.53 2111.93 1419.47 2109.8 1439.33C2107.67 1459.07 2106.07 1475.47 2106.2 1475.6C2106.33 1475.73 2160.73 1481.73 2184.33 1484C2204.73 1486.13 2206.2 1486.8 2206.73 1495.6C2207.13 1503.33 2208.2 1504 2219.27 1504C2225.4 1504 2225.53 1503.87 2226.6 1498.93C2228.33 1489.87 2227.8 1479.33 2225.27 1475.6C2219.93 1467.47 2209.67 1465.07 2159 1459.87C2143.27 1458.27 2129.93 1456.53 2129.4 1456.13C2128.6 1455.33 2131.53 1425.73 2132.6 1424.67C2132.87 1424.4 2140.87 1424.93 2150.47 1426C2183.8 1429.73 2232.87 1434.67 2233 1434.27C2233.13 1434.13 2233.67 1429.47 2234.2 1423.73L2235.13 1413.6L2231.4 1412.8C2229.4 1412.4 2204.33 1409.73 2175.67 1406.67C2147.13 1403.73 2121.4 1401.07 2118.73 1400.67C2115.13 1400.13 2113.67 1400.53 2113.67 1401.6Z" fill="#F5F5F5"/>
<path d="M489.666 1473.47C466.733 1478.53 450.066 1490 442.066 1506.27C435.133 1520.67 437.933 1542.27 448.466 1555.07C455.666 1563.73 471.133 1570.53 483.8 1570.67C487.933 1570.67 487.933 1570.53 488.866 1562.53C490.333 1547.73 490.466 1548 484.066 1547.87C465 1547.6 454.066 1531.6 461.533 1515.2C464.333 1509.07 470.066 1504.13 479 1500.27C493.933 1493.87 517.933 1491.33 527.133 1495.2C536.2 1498.93 541.8 1507.47 541.933 1517.2C541.933 1525.33 539 1531.07 532.466 1535.73L527.266 1539.33L531.933 1548.67C534.6 1553.73 536.866 1558.27 537.133 1558.53C537.933 1559.47 549 1552.27 552.6 1548.4C561 1539.47 565.4 1524.4 563 1512.13C556.866 1479.33 528.866 1464.67 489.666 1473.47Z" fill="#F5F5F5"/>
<path d="M2101.13 1493.47C2099.93 1497.47 2095.53 1513.87 2091.13 1530C2084.2 1556 2083.53 1559.47 2085.53 1560.27C2086.73 1560.8 2107.13 1566.4 2131 1572.67C2154.87 1579.07 2175.8 1585.2 2177.53 1586.27C2180.33 1588.13 2180.6 1588.93 2179.8 1595.33L2179 1602.27L2186.73 1604.53C2191 1605.73 2195.13 1606.67 2195.93 1606.67C2197.13 1606.67 2200.33 1597.07 2202.33 1587.6C2202.73 1585.33 2202.07 1581.6 2200.47 1578.13C2198.33 1573.2 2196.73 1571.73 2189.53 1568.13C2184.73 1565.87 2165.13 1559.73 2145.67 1554.53C2126.2 1549.2 2110.07 1544.67 2109.67 1544.4C2108.73 1543.6 2116.6 1513.33 2117.93 1513.33C2118.47 1513.33 2129.93 1516.27 2143.27 1519.87C2205.53 1536.67 2214.07 1538.8 2215 1537.73C2216.07 1536.53 2220.73 1518.53 2220.07 1518C2219.8 1517.73 2194.47 1510.93 2163.67 1502.67C2132.87 1494.4 2106.6 1487.33 2105.4 1487.07C2103.67 1486.53 2102.73 1488 2101.13 1493.47Z" fill="#F5F5F5"/>
<path d="M515 1577.6C484.6 1588.67 459.4 1597.87 459.133 1598.13C458.867 1598.4 460.333 1603.07 462.333 1608.67C465.267 1616.67 466.467 1618.67 468.2 1618C475.4 1615.07 514.2 1601.33 515.133 1601.33C517.8 1601.33 517.8 1608 515.267 1611.6C512.6 1615.33 494.333 1633.47 483.133 1643.6L477.133 1648.93L480.867 1659.47C482.867 1665.33 485.133 1670.53 485.667 1671.2C487.133 1672.67 521.4 1639.33 527.133 1631.07C529.267 1628 531.4 1623.6 531.8 1621.33C532.733 1616.67 532.733 1616.67 537 1619.47C539.4 1621.07 544.2 1621.6 556.733 1621.73C575.133 1622 578.6 1623.33 581.667 1630.93C582.6 1633.33 583.667 1635.6 583.8 1635.73C584.467 1636.67 600.333 1630.27 600.333 1629.07C600.333 1626.67 593.533 1614.13 590.6 1610.8C585.933 1605.87 582.2 1604.93 560.067 1604C540.333 1603.2 538.733 1602.93 535.667 1600C533.8 1598.27 532.467 1596.27 532.733 1595.6C532.867 1594.93 543.533 1590.67 556.2 1585.87C568.867 1581.2 579.533 1577.2 579.933 1576.93C580.867 1575.87 573.267 1557.33 571.8 1557.33C571 1557.33 545.4 1566.53 515 1577.6Z" fill="#F5F5F5"/>
<path d="M2098.87 1585.33C2084.47 1587.87 2073.27 1595.2 2065.67 1606.8C2047.27 1635.33 2056.87 1666.93 2089.13 1683.6C2124.07 1701.73 2155.4 1698.13 2171.93 1674.13C2186.87 1652.27 2183.93 1624.27 2164.87 1606.8C2148.73 1592 2117.67 1582 2098.87 1585.33ZM2129.27 1612C2147 1618.8 2155.93 1626.8 2159.13 1639.07C2160.6 1644.13 2160.6 1646.53 2159.27 1651.47C2153.67 1672.4 2132.73 1678.13 2104.73 1666.53C2077.8 1655.33 2069.67 1632 2086.6 1615.07C2089.67 1612 2094.07 1608.8 2096.6 1608.13C2103.93 1605.87 2117.53 1607.47 2129.27 1612Z" fill="#F5F5F5"/>
<path d="M579 1651.07C566.866 1657.07 542.866 1668.93 525.666 1677.2C508.466 1685.6 494.066 1692.67 493.666 1692.93C493.4 1693.2 495.4 1697.87 498.066 1703.33L503 1713.33H508.733C517 1713.33 591.4 1717.33 591.933 1717.73C592.066 1718 576.466 1725.87 557 1735.33L521.8 1752.4L526.333 1761.47L531 1770.53L556.6 1758.13C626.2 1724.4 640.333 1717.47 640.333 1716.8C640.333 1716.4 638.2 1711.87 635.533 1706.67L630.733 1697.33L621.8 1697.2C602.733 1697.07 543.133 1693.87 542.2 1692.93C541.666 1692.4 544.466 1690.53 548.466 1688.8C556.333 1685.33 610.066 1658.8 610.866 1658C611.666 1657.2 603.266 1640 602.066 1640.13C601.533 1640.13 591.133 1645.07 579 1651.07Z" fill="#F5F5F5"/>
<path d="M2037.8 1672.67C2032.07 1688 2034.33 1694.67 2052.6 1714C2058.07 1719.87 2063.4 1726.13 2064.2 1727.73C2065.93 1731.07 2065.13 1737.33 2063 1737.33C2062.33 1737.33 2052.73 1732.8 2041.53 1727.33C2030.33 1721.87 2020.2 1717.07 2019 1716.67C2017.4 1716.13 2015.8 1718.27 2012.33 1725.33C2009.93 1730.4 2008.07 1734.93 2008.47 1735.2C2009.8 1736.53 2115.67 1788 2117 1788C2117.93 1788 2125.67 1772.27 2125.67 1770.27C2125.67 1769.2 2115.67 1763.6 2102.33 1757.2C2089.53 1751.07 2079 1745.6 2079 1745.2C2079 1744.8 2080.2 1743.2 2081.67 1741.73C2085.4 1737.6 2094.87 1736.93 2119.53 1738.67C2131.13 1739.47 2140.87 1739.87 2141 1739.73C2141.27 1739.47 2143.8 1734.4 2146.73 1728.53L2152.2 1717.73L2144.07 1716.8C2139.53 1716.4 2125.93 1716 2113.67 1716C2093 1716 2091 1716.27 2085.27 1719.2C2079.8 1721.87 2079 1722 2079 1720.13C2079 1716.4 2071.93 1706.53 2063.13 1698C2053.93 1689.07 2052.33 1684.53 2055.53 1676.93L2057.53 1672L2051 1668.67C2047.4 1666.8 2043.53 1665.33 2042.47 1665.33C2041.27 1665.33 2039.4 1668.4 2037.8 1672.67Z" fill="#F5F5F5"/>
<path d="M596.067 1757.2C568.467 1774.53 545.4 1789.07 545 1789.6C544.6 1790 546.733 1794.27 549.8 1799.2C554.467 1806.67 555.8 1808 559.133 1808C561.267 1808 579.8 1807.07 600.467 1805.87C621 1804.8 639.4 1804 641.133 1804.27C643.667 1804.53 637.133 1809.33 611.8 1825.2C591.267 1838 579.4 1846.27 579.933 1847.2C586.6 1858.27 590.067 1862.67 591.4 1861.73C603.667 1854.53 689.533 1800.53 690.867 1799.33C692.333 1797.87 691.8 1796.27 687.533 1789.33C684.867 1784.93 682.067 1780.93 681.533 1780.53C680.867 1780.27 660.6 1781.2 636.2 1782.67C611.933 1784.27 591.8 1785.33 591.533 1785.07C591.267 1784.67 605.8 1775.33 623.667 1764.13C641.667 1752.93 656.6 1743.2 657 1742.67C657.667 1741.6 648.2 1725.33 647 1725.47C646.6 1725.47 623.667 1739.73 596.067 1757.2Z" fill="#F5F5F5"/>
<path d="M678.866 1730.93C673.4 1738.27 672.466 1740.53 672.333 1746.53C672.333 1754.93 677.666 1763.47 684.733 1766.8C691.266 1769.73 694.733 1769.87 701.8 1767.73C707.533 1766.13 707.666 1765.73 705.533 1760.8C704.066 1757.73 703.4 1757.47 698.2 1758.27C693 1758.93 692.066 1758.67 688.466 1754.8C682.466 1748.4 682.066 1742.93 687.133 1735.87C688.333 1734.27 688.2 1732.93 686.333 1730.27C685.133 1728.27 683.666 1726.67 683.133 1726.67C682.6 1726.67 680.733 1728.53 678.866 1730.93Z" fill="#F5F5F5"/>
<path d="M1923.4 1796.8C1920.87 1800.27 1920.73 1801.07 1922.47 1804C1925.13 1808.93 1924.73 1813.2 1921 1818C1917.13 1823.07 1912.07 1824.8 1906.87 1822.53C1903.4 1821.2 1902.73 1821.33 1900.33 1824.13C1896.73 1828.53 1896.87 1829.07 1903.4 1832C1910.47 1835.2 1915.53 1835.33 1922.47 1832.13C1935.4 1826.27 1939.27 1808.53 1929.93 1797.33L1926.2 1792.93L1923.4 1796.8Z" fill="#F5F5F5"/>
<path d="M1958.2 1802.93C1956.07 1805.33 1953 1808.8 1951.4 1810.67L1948.47 1814.13L1965 1856C1974.2 1878.93 1981.67 1898 1981.67 1898.27C1981.67 1899.2 1976.87 1895.47 1961.67 1882.67C1953.4 1875.73 1940.73 1864.93 1933.4 1858.8C1926.2 1852.67 1920.07 1847.87 1919.93 1848.13C1919.67 1848.4 1916.73 1852 1913.4 1856.13L1907.13 1863.6L1937.8 1889.47C1986.6 1930.53 1999.67 1941.2 2000.33 1941.33C2001.67 1941.33 2013.67 1926.4 2013.67 1924.67C2013.67 1923.73 2006.73 1905.07 1998.33 1883.2C1989.93 1861.33 1983.27 1843.2 1983.67 1842.93C1983.93 1842.67 1996.87 1853.07 2012.47 1866C2028.07 1879.07 2041.53 1889.73 2042.33 1889.87C2043.8 1890 2055 1878 2055 1876.13C2055 1875.07 2045.27 1866.67 1997.8 1826.93C1979.13 1811.47 1963.4 1798.67 1963 1798.67C1962.6 1798.67 1960.47 1800.67 1958.2 1802.93Z" fill="#F5F5F5"/>
<path d="M699.933 1900.93L657.8 1944.67L665.4 1952.4L673 1960.13L689.666 1943.07C698.866 1933.6 714.733 1917.47 724.866 1906.93C735.133 1896.53 743.933 1888.13 744.466 1888.27C746.6 1889.07 773.8 1916.4 773.4 1917.33C773.133 1918 757.4 1934.4 738.466 1954L703.933 1989.47L711.133 1996.8C718.6 2004.27 720.733 2005.33 722.6 2002C723.266 2000.93 732.733 1990.8 743.666 1979.73C754.6 1968.53 772.466 1950.27 783.266 1939.2C794.2 1928.13 803 1918.53 803 1917.73C803 1916.53 783.933 1897.47 754.2 1868.93L742.2 1857.33L699.933 1900.93Z" fill="#F5F5F5"/>
<path d="M1892.07 1879.6L1884.47 1887.33L1890.2 1908C1905 1960.53 1908.47 1973.6 1907.93 1974.13C1907.67 1974.4 1903.67 1970.67 1899 1965.73C1884.73 1950.4 1853.27 1918.67 1852.33 1918.67C1851.93 1918.67 1848.6 1921.6 1845 1925.33L1838.47 1932L1843.8 1937.6C1869 1963.87 1887.8 1983.47 1903.93 2000L1922.87 2019.33L1930.6 2011.73L1938.2 2004.13L1936.47 1997.07C1934.47 1989.6 1916.73 1923.87 1915.4 1919.33C1915 1917.87 1927.13 1929.47 1942.47 1945.07L1970.33 1973.33L1977.53 1966.67L1984.73 1960.13L1969.27 1943.73C1960.73 1934.67 1941.53 1914.8 1926.73 1899.6L1899.67 1871.73L1892.07 1879.6Z" fill="#F5F5F5"/>
<path d="M1824.2 1939.6C1811.93 1951.07 1811.4 1955.47 1818.2 1981.87C1821.8 1995.33 1822.47 1999.87 1821.4 2002.8C1818.47 2011.07 1817.4 2010.4 1802.33 1989.33C1794.47 1978.27 1787.53 1968.93 1786.87 1968.53C1785.4 1967.73 1769.67 1978.53 1769.67 1980.4C1769.67 1981.07 1776.33 1990.8 1784.47 2001.87C1792.47 2012.93 1804.6 2029.47 1811.27 2038.67C1817.8 2047.87 1827.13 2060.53 1831.8 2067.07L1840.33 2078.8L1848.07 2073.2C1852.2 2070.13 1856.2 2067.2 1856.73 2066.67C1857.4 2066.13 1851.4 2056.8 1843.4 2045.87C1825.53 2021.33 1826.2 2022.67 1828.47 2021.2C1834.07 2017.73 1839.53 2019.87 1866.6 2036.27L1884.07 2046.93L1894.33 2039.33L1904.6 2031.73L1887.4 2021.73C1861.93 2006.67 1851.8 2002.13 1844.07 2002.27C1838.07 2002.4 1837.67 2002.13 1838.47 1999.47C1840.07 1994.67 1839.27 1987.73 1835.67 1976.67C1831 1962 1831.27 1958.13 1837 1952.4C1839.53 1949.87 1841.67 1947.47 1841.67 1947.2C1841.67 1946.27 1832.07 1933.33 1831.53 1933.33C1831.13 1933.33 1827.8 1936.13 1824.2 1939.6Z" fill="#F5F5F5"/>
<path d="M810.6 1944C792.2 1948.67 770.867 1968.4 760.6 1990.53C749.667 2014.27 755.533 2038 776.067 2053.6C797.8 2070 824.067 2067.07 846.467 2045.87C864.867 2028.27 875.133 2006 873 1988C871.133 1971.6 858.067 1954.4 841.667 1946.8C833.533 1943.07 819.667 1941.87 810.6 1944ZM836.333 1968C845.667 1972.8 851 1981.87 851 1993.07C851 2006.93 834.2 2030.27 818.6 2038.27C802.867 2046.13 786.2 2040.53 779.8 2025.07C774.867 2013.47 779 1999.07 791.533 1983.73C805.667 1966.4 821.8 1960.67 836.333 1968Z" fill="#F5F5F5"/>
<path d="M892.333 1992.93C888.6 1999.33 872.733 2026.67 859.533 2049.6C853.933 2059.33 848.066 2068.67 846.6 2070.27C843.533 2073.73 839.8 2074.13 835 2071.33C829.933 2068.4 829.266 2068.8 824.466 2076.93L820.2 2084.53L823.266 2086.93C829.266 2091.73 839.266 2096.13 844.2 2096.27C855.8 2096.4 860.2 2091.07 886.333 2046C895.666 2029.87 903.4 2016.53 903.533 2016.4C903.8 2016 928.466 2030.27 929.933 2031.73C931.4 2033.2 928.733 2038 897.666 2091.73C888.733 2107.33 881.533 2120.27 881.8 2120.53C885.666 2123.6 899.666 2130.53 900.466 2129.73C901.533 2128.67 909.666 2114.8 934.333 2072C939.666 2062.8 947.666 2048.8 952.333 2040.93C959.266 2028.8 960.333 2026.13 958.866 2024.67C957.133 2023.07 896.733 1988 895.666 1988C895.4 1988 893.933 1990.27 892.333 1992.93Z" fill="#F5F5F5"/>
<path d="M1735.67 2000.4C1727.67 2003.07 1722.07 2006.27 1716.07 2011.73C1696.47 2029.47 1695.67 2056.93 1713.8 2086.93C1731.93 2116.8 1758.6 2128.13 1783.4 2116.27C1803.93 2106.53 1812.6 2088.93 1808.33 2066C1806.87 2058 1806.33 2057.2 1803.8 2057.87C1802.33 2058.13 1797.27 2059.2 1792.6 2060.13C1785.8 2061.47 1784.33 2062.13 1785 2063.87C1786.6 2067.87 1787.4 2078.4 1786.47 2083.2C1785.27 2089.6 1780.07 2095.33 1773 2098C1757.13 2104.13 1741.8 2093.07 1728.07 2065.6C1723.4 2056.27 1722.47 2053.33 1722.47 2046.27C1722.47 2036.4 1724.87 2031.07 1731.93 2025.73C1736.07 2022.53 1738.07 2022 1745.67 2022C1753.4 2022 1755.13 2022.53 1759.53 2025.87C1762.33 2027.87 1765 2029.07 1765.53 2028.53C1766.07 2027.87 1769.53 2024.13 1773 2020.27L1779.53 2013.2L1775.53 2009.87C1764.2 2000.27 1747.8 1996.4 1735.67 2000.4Z" fill="#F5F5F5"/>
<path d="M969.267 2036.27C967.533 2040.13 956.067 2064.8 943.8 2091.2C931.533 2117.47 921.933 2139.47 922.6 2140.13C923.133 2140.67 927.667 2142.93 932.467 2145.07L941.267 2149.07L947.8 2144C951.4 2141.33 962.067 2133.47 971.533 2126.53C981.133 2119.6 994.333 2110 1000.87 2105.07C1007.53 2100.27 1013.13 2096.4 1013.4 2096.53C1013.53 2096.8 1006.47 2112.4 997.667 2131.33C988.867 2150.27 981.667 2166.27 981.667 2166.93C981.667 2167.87 999.133 2176.4 999.667 2175.73C999.667 2175.47 1002.6 2169.33 1005.93 2162C1009.4 2154.67 1014.87 2142.67 1018.33 2135.33C1021.8 2128 1028.07 2114.53 1032.33 2105.33C1036.6 2096.13 1042.47 2083.6 1045.4 2077.33L1050.73 2066L1042.6 2061.73C1038.07 2059.33 1033.27 2057.47 1032.07 2057.33C1030.87 2057.33 1013.8 2069.33 994.067 2083.87C974.467 2098.4 958.2 2110.27 957.933 2110.13C957.8 2109.87 965.133 2093.6 974.333 2074C983.533 2054.27 991 2038.13 991 2037.87C991 2037.6 973.667 2029.33 973 2029.33C972.733 2029.33 971.133 2032.53 969.267 2036.27Z" fill="#F5F5F5"/>
<path d="M1644.33 2048.13C1627.13 2056.13 1610.73 2063.73 1608.07 2064.93L1603 2067.33L1628.47 2122C1642.47 2152 1654.2 2176.93 1654.47 2177.2C1655 2177.73 1662.6 2174.4 1690.33 2161.33C1699.13 2157.2 1711.27 2151.47 1717.4 2148.67C1723.4 2145.87 1728.33 2143.07 1728.33 2142.53C1728.33 2140.4 1721.27 2125.33 1720.2 2125.33C1719.67 2125.33 1708.2 2130.4 1695 2136.53C1681.67 2142.8 1669.67 2148.27 1668.2 2148.67C1665.93 2149.47 1664.73 2147.6 1659 2135.33C1655.27 2127.47 1652.6 2120.67 1653 2120.13C1653.27 2119.47 1663.67 2114.4 1675.93 2108.67C1688.33 2102.93 1698.87 2097.87 1699.53 2097.2C1700.73 2096.13 1694.33 2080.53 1692.2 2079.2C1691.67 2078.93 1682.33 2082.93 1671.53 2088.13C1660.6 2093.33 1649.67 2098.4 1647.27 2099.33L1642.87 2101.2L1637.67 2089.73C1634.73 2083.47 1632.33 2077.87 1632.33 2077.33C1632.33 2076.8 1643.8 2071.07 1657.8 2064.53C1671.67 2058.13 1683.4 2052.4 1683.8 2051.87C1684.2 2051.2 1682.47 2046.93 1680.07 2042.13L1675.67 2033.6L1644.33 2048.13Z" fill="#F5F5F5"/>
<path d="M1049.67 2073.2C1048.87 2075.87 1047.93 2080.4 1047.53 2083.33L1046.73 2088.8L1060.2 2092C1067.53 2093.73 1074.33 2095.6 1075.27 2096.13C1076.6 2096.93 1074.2 2108.27 1065 2145.2C1058.47 2171.6 1053.4 2193.6 1053.8 2194C1055.4 2195.6 1072.87 2200 1073.8 2198.93C1074.2 2198.4 1079.93 2176.67 1086.33 2150.67C1092.73 2124.67 1098.2 2102.93 1098.47 2102.53C1098.73 2102 1105.67 2103.33 1113.93 2105.47C1122.2 2107.47 1129.13 2108.93 1129.4 2108.67C1129.67 2108.4 1131 2104 1132.33 2098.8L1134.73 2089.33L1131.27 2088.4C1129.27 2088 1110.47 2083.2 1089.4 2078L1051 2068.4L1049.67 2073.2Z" fill="#F5F5F5"/>
<path d="M1589.4 2071.07C1583.27 2072.93 1580.33 2074.53 1580.33 2075.87C1580.33 2077.07 1583.27 2088.4 1586.87 2101.07C1590.6 2113.73 1593.27 2124.93 1592.87 2126C1590.6 2131.73 1572.73 2139.47 1564.07 2138.27C1554.2 2136.93 1553.27 2135.2 1542.33 2098.27C1540.47 2091.87 1538.2 2086.67 1537.27 2086.67C1536.33 2086.8 1531.8 2087.87 1527 2089.2C1520.07 2091.2 1518.47 2092.13 1518.73 2094.13C1520.2 2101.47 1531.4 2138.13 1533.53 2142.4C1543.93 2162.67 1569.27 2165.6 1593 2149.33C1596.47 2146.93 1599.4 2145.33 1599.53 2145.6C1599.67 2145.73 1602.73 2155.87 1606.2 2168C1609.67 2180.13 1612.87 2190.27 1613.13 2190.53C1613.8 2191.2 1631.27 2186.67 1632.6 2185.47C1633.13 2184.93 1627.27 2162.4 1619.53 2135.33C1601.93 2073.47 1600.33 2068 1599.27 2068.13C1598.73 2068.27 1594.33 2069.6 1589.4 2071.07Z" fill="#F5F5F5"/>
<path d="M1143 2097.07C1142.33 2099.87 1138.07 2119.2 1133.8 2140.13C1129.4 2160.93 1124.33 2185.2 1122.47 2193.87C1120.6 2202.67 1119.27 2210 1119.53 2210.27C1119.8 2210.53 1135.53 2214 1154.47 2218C1173.4 2222.13 1191.27 2225.87 1194.07 2226.53C1196.73 2227.2 1199.27 2227.33 1199.53 2226.8C1200.47 2225.2 1203.53 2208 1202.87 2207.6C1202.6 2207.33 1189.8 2204.53 1174.33 2201.33C1159 2198.13 1145.93 2195.2 1145.4 2194.8C1144.73 2194.13 1150.47 2164.13 1151.53 2162.93C1151.8 2162.8 1163.27 2164.93 1177 2168C1190.87 2170.93 1202.73 2173.33 1203.67 2173.33C1204.6 2173.33 1205.67 2170.8 1206.07 2167.6C1206.6 2164.53 1207.27 2160.13 1207.67 2157.87L1208.6 2153.87L1198.07 2151.47C1192.33 2150.27 1180.87 2147.73 1172.47 2146C1164.07 2144.13 1156.87 2142.4 1156.6 2142C1156.07 2141.47 1160.2 2117.6 1161 2116.27C1161.13 2116.13 1174.07 2118.67 1189.8 2121.87C1205.4 2125.2 1218.33 2127.73 1218.47 2127.6C1219 2126.8 1222.73 2108.67 1222.33 2108.27C1221.93 2107.87 1199.27 2102.93 1160.47 2094.67C1153.53 2093.2 1147.13 2092 1146.2 2092C1145.27 2092 1143.8 2094.27 1143 2097.07Z" fill="#F5F5F5"/>
<path d="M1493 2096.27L1486.2 2097.6L1473.13 2139.87C1465.93 2163.07 1459.53 2182.53 1459 2183.07C1458.47 2183.73 1457.67 2181.87 1457.13 2179.07C1454.6 2164.13 1443.27 2107.73 1442.6 2107.2C1441.8 2106.4 1425.4 2109.33 1424.07 2110.53C1423.53 2110.93 1426.6 2129.33 1430.87 2151.33C1435.27 2173.33 1440.33 2199.87 1442.33 2210.27C1445.27 2225.6 1446.47 2229.33 1448.2 2229.2C1449.4 2229.2 1454.2 2228.4 1459 2227.47L1467.53 2225.87L1473.67 2207.33C1477 2197.07 1482.87 2178.4 1486.87 2166C1490.87 2153.47 1494.6 2142.8 1495.13 2142.27C1495.53 2141.6 1499.27 2157.73 1503.13 2178C1507 2198.27 1510.6 2215.33 1511 2216.13C1511.8 2217.2 1528.87 2214.67 1530.33 2213.2C1530.6 2212.93 1526.07 2188.4 1520.2 2158.67C1514.47 2128.93 1509.27 2102.4 1508.87 2099.6C1508.07 2095.07 1507.67 2094.67 1503.8 2094.8C1501.53 2094.93 1496.6 2095.6 1493 2096.27Z" fill="#F5F5F5"/>
<path d="M1234.07 2117.47C1236.6 2122.93 1243 2136.53 1248.2 2147.87C1253.4 2159.07 1257.13 2169.07 1256.73 2169.87C1256.2 2170.67 1247.13 2183.6 1236.6 2198.53C1226.07 2213.47 1217.13 2226.53 1216.87 2227.33C1215.93 2229.6 1239.93 2231.6 1242.07 2229.47C1242.87 2228.67 1249 2220 1255.8 2210.27C1262.47 2200.67 1268.33 2192.67 1268.87 2192.67C1269.4 2192.67 1274.2 2202 1279.4 2213.33C1284.6 2224.67 1289.4 2234.4 1290.07 2234.8C1291.4 2235.73 1313.8 2237.6 1314.6 2236.93C1314.87 2236.67 1308.07 2221.87 1299.67 2204L1284.33 2171.73L1303.13 2144.4C1313.53 2129.33 1321.4 2116.67 1320.87 2116C1320.2 2115.47 1314.73 2114.67 1308.73 2114.27L1297.8 2113.47L1286.07 2131.33C1279.67 2141.2 1273.8 2149.07 1273.27 2148.93C1272.73 2148.8 1268.33 2140 1263.67 2129.47C1258.87 2118.93 1254.87 2110.13 1254.73 2109.87C1254.47 2109.73 1248.73 2109.2 1241.93 2108.67L1229.53 2107.6L1234.07 2117.47Z" fill="#F5F5F5"/>
<path d="M1395.4 2110.27C1390.2 2110.93 1390.33 2109.2 1393 2137.33C1393.93 2148.67 1394.73 2158 1394.6 2158.27C1393.93 2158.8 1353 2162.4 1352.47 2161.87C1352.07 2161.6 1351 2150.8 1349.8 2137.87L1347.8 2114.53L1337.8 2115.33C1332.2 2115.87 1327.27 2116.67 1326.73 2117.2C1326.33 2117.6 1328.2 2143.73 1331.13 2175.33C1333.93 2206.8 1336.2 2233.73 1336.33 2235.2C1336.33 2237.47 1337.27 2237.6 1346.33 2237.07C1351.93 2236.67 1356.73 2236 1357.27 2235.47C1357.8 2234.93 1357.13 2223.07 1355.93 2209.07C1354.73 2195.07 1353.93 2183.33 1354.07 2183.07C1355.13 2182.13 1395 2179.6 1395.93 2180.4C1396.33 2180.93 1397.8 2192.4 1398.87 2205.87C1400.07 2219.47 1401.4 2230.93 1401.93 2231.33C1402.47 2231.87 1407.4 2231.87 1413 2231.33L1423.27 2230.27L1422.47 2223.47C1422.07 2219.73 1421.4 2212.8 1421 2208C1418.6 2179.47 1413.53 2122.27 1412.87 2116.27L1412.2 2109.33L1405.93 2109.6C1402.47 2109.6 1397.67 2110 1395.4 2110.27Z" fill="#F5F5F5"/>
</svg>
