<svg width="126" height="119" viewBox="0 0 126 119" fill="none" xmlns="http://www.w3.org/2000/svg">
<path d="M87 0L86.2 4.9C86.2 4.9 100.1 4.9 101.6 12.3H111.5C111.5 12.3 114.9 5.1 124.1 4.9C124.3 4.9 125.3 0 125.3 0H87Z" fill="url(#paint0_linear_173_6)"/>
<path d="M48.0001 6.6C49.6001 5.7 52.3001 5.2 54.0001 4.7L55.0001 0H1.6001L0.600098 4.9C8.7001 5 14.0001 11.2 17.7001 17.4C26.3001 32 34.9001 46.6 43.4001 61.4C47.9001 69.1 52.9001 76.5 56.5001 84.7C59.0001 90.4 57.4001 95.6 52.1001 98.7C45.4001 102.7 38.2001 103.3 30.7001 101.5C28.6001 101 26.5001 100.3 24.4001 99.7C23.4001 100.9 22.6001 101.9 21.8001 103C23.1001 114 33.7001 120.8 44.4001 117.9C51.9001 115.9 57.1001 110.8 61.3001 104.7C68.3001 94.6 79.7001 71 79.7001 71C79.7001 71 57.4001 32.7 46.5001 14.2C44.9001 11.4 45.2001 8.3 48.0001 6.6Z" fill="url(#paint1_linear_173_6)"/>
<defs>
<linearGradient id="paint0_linear_173_6" x1="105.706" y1="0.5254" x2="105.706" y2="119.327" gradientUnits="userSpaceOnUse">
<stop stop-color="#E50079"/>
<stop offset="0.5" stop-color="#E20111"/>
<stop offset="1" stop-color="#FFDB00"/>
</linearGradient>
<linearGradient id="paint1_linear_173_6" x1="40.0792" y1="0.5254" x2="40.0792" y2="119.327" gradientUnits="userSpaceOnUse">
<stop stop-color="#E50079"/>
<stop offset="0.5" stop-color="#E20111"/>
<stop offset="1" stop-color="#FFDB00"/>
</linearGradient>
</defs>
</svg>
