<svg id="logosandtypes_com" xmlns="http://www.w3.org/2000/svg" viewBox="0 0 150 150"><path d="M0 0h150v150H0V0z" fill="none"/><linearGradient id="a" gradientUnits="userSpaceOnUse" x1="117.7058" y1="18.5254" x2="117.7058" y2="137.3274"><stop offset="0" stop-color="#e50079"/><stop offset=".5" stop-color="#e20111"/><stop offset="1" stop-color="#ffdb00"/></linearGradient><path d="M99 18l-.8 4.9s13.9 0 15.4 7.4h9.9s3.4-7.2 12.6-7.4c.2 0 1.2-4.9 1.2-4.9H99z" fill="url(#a)"/><linearGradient id="b" gradientUnits="userSpaceOnUse" x1="52.0791" y1="18.5254" x2="52.0791" y2="137.3274"><stop offset="0" stop-color="#e50079"/><stop offset=".5" stop-color="#e20111"/><stop offset="1" stop-color="#ffdb00"/></linearGradient><path d="M60 24.6c1.6-.9 4.3-1.4 6-1.9l1-4.7H13.6l-1 4.9c8.1.1 13.4 6.3 17.1 12.5 8.6 14.6 17.2 29.2 25.7 44 4.5 7.7 9.5 15.1 13.1 23.3 2.5 5.7.9 10.9-4.4 14-6.7 4-13.9 4.6-21.4 2.8-2.1-.5-4.2-1.2-6.3-1.8-1 1.2-1.8 2.2-2.6 3.3 1.3 11 11.9 17.8 22.6 14.9 7.5-2 12.7-7.1 16.9-13.2 7-10.1 18.4-33.7 18.4-33.7S69.4 50.7 58.5 32.2c-1.6-2.8-1.3-5.9 1.5-7.6z" fill="url(#b)"/></svg>