<svg width="194" height="203" viewBox="0 0 194 203" fill="none" xmlns="http://www.w3.org/2000/svg">
<path fill-rule="evenodd" clip-rule="evenodd" d="M193.6 23.1L113.3 101.6V199.2C113.3 201 105.7 202.4 97.0001 202.5C88.7001 202.4 80.7001 201 80.7001 199.2V101.6L0.400049 23.1C-0.899951 21.8 3.20005 15.7 9.50005 9.39995C15.8001 3.09995 22.0001 -1.00005 23.2001 0.299951L96.8 72.1L170.4 0.299951C171.7 -1.00005 177.8 3.09995 184.1 9.39995C190.5 15.7 194.7 21.8 193.6 23.1Z" fill="url(#paint0_linear_167_79)"/>
<path fill-rule="evenodd" clip-rule="evenodd" d="M193.6 23.1L113.3 101.6V199.2C113.3 201 105.7 202.4 97.0001 202.5C88.7001 202.4 80.7001 201 80.7001 199.2V101.6L0.400049 23.1C-0.899951 21.8 3.20005 15.7 9.50005 9.39995C15.8001 3.09995 22.0001 -1.00005 23.2001 0.299951L96.8 72.1L170.4 0.299951C171.7 -1.00005 177.8 3.09995 184.1 9.39995C190.5 15.7 194.7 21.8 193.6 23.1Z" fill="url(#paint1_linear_167_79)"/>
<defs>
<linearGradient id="paint0_linear_167_79" x1="11" y1="15.5" x2="96.9672" y2="202.5" gradientUnits="userSpaceOnUse">
<stop stop-color="#FF6A16"/>
<stop offset="1" stop-color="#FF3228"/>
</linearGradient>
<linearGradient id="paint1_linear_167_79" x1="180" y1="13.5" x2="129" y2="70.5" gradientUnits="userSpaceOnUse">
<stop stop-color="#FF66DD"/>
<stop offset="1" stop-color="#FF5298" stop-opacity="0.19"/>
</linearGradient>
</defs>
</svg>
